<?xml version="1.0" encoding="UTF-8"?>
<svg version="1.1" xmlns="http://www.w3.org/2000/svg" width="500" height="500">
<path d="M0 0 C2.92874562 -0.04337643 4.98886755 0.10337537 7.80444336 1.04190063 C7.14444336 2.69190063 6.48444336 4.34190063 5.80444336 6.04190063 C5.14444336 6.04190063 4.48444336 6.04190063 3.80444336 6.04190063 C3.53349854 6.6312439 3.26255371 7.22058716 2.98339844 7.82778931 C1.81933805 10.01392798 0.58539288 11.62514133 -1.05883789 13.46768188 C-1.89511719 14.41610962 -1.89511719 14.41610962 -2.74829102 15.38369751 C-3.619375 16.35919556 -3.619375 16.35919556 -4.50805664 17.35440063 C-7.87062815 21.12824929 -11.12631911 24.84932514 -13.98852539 29.02236938 C-14.7168457 30.0188147 -15.44516602 31.01526001 -16.19555664 32.04190063 C-16.85555664 32.04190063 -17.51555664 32.04190063 -18.19555664 32.04190063 C-18.19555664 32.70190063 -18.19555664 33.36190063 -18.19555664 34.04190063 C-18.85555664 34.04190063 -19.51555664 34.04190063 -20.19555664 34.04190063 C-20.55133789 34.85401001 -20.55133789 34.85401001 -20.91430664 35.68252563 C-22.53903421 38.67440201 -24.54574434 41.15349462 -26.69555664 43.79190063 C-27.48961914 44.77674438 -28.28368164 45.76158813 -29.10180664 46.77627563 C-29.79274414 47.52393188 -30.48368164 48.27158813 -31.19555664 49.04190063 C-31.85555664 49.04190063 -32.51555664 49.04190063 -33.19555664 49.04190063 C-33.42114258 49.58717407 -33.64672852 50.13244751 -33.87915039 50.69424438 C-35.58699262 53.73998082 -37.86615462 56.0950446 -40.25805664 58.60440063 C-46.30819028 65.07061223 -51.98143495 71.78982406 -57.32446289 78.85830688 C-57.94192383 79.57889282 -58.55938477 80.29947876 -59.19555664 81.04190063 C-59.85555664 81.04190063 -60.51555664 81.04190063 -61.19555664 81.04190063 C-61.85555664 82.69190063 -62.51555664 84.34190063 -63.19555664 86.04190063 C-63.85555664 86.04190063 -64.51555664 86.04190063 -65.19555664 86.04190063 C-65.45336914 86.60393188 -65.71118164 87.16596313 -65.97680664 87.74502563 C-67.33725441 90.30894642 -68.92344626 92.49416429 -70.69555664 94.79190063 C-71.30399414 95.59111938 -71.91243164 96.39033813 -72.53930664 97.21377563 C-73.08586914 97.81705688 -73.63243164 98.42033813 -74.19555664 99.04190063 C-74.85555664 99.04190063 -75.51555664 99.04190063 -76.19555664 99.04190063 C-76.46368164 99.61940063 -76.73180664 100.19690063 -77.00805664 100.79190063 C-78.19555664 103.04190063 -78.19555664 103.04190063 -79.88305664 104.97940063 C-81.48921331 107.02622283 -81.48921331 107.02622283 -80.88305664 109.79190063 C-80.65618164 110.53440063 -80.42930664 111.27690063 -80.19555664 112.04190063 C-79.53555664 112.04190063 -78.87555664 112.04190063 -78.19555664 112.04190063 C-78.19555664 112.70190063 -78.19555664 113.36190063 -78.19555664 114.04190063 C-77.53555664 114.04190063 -76.87555664 114.04190063 -76.19555664 114.04190063 C-74.76005938 115.63524303 -73.39728337 117.29441146 -72.07055664 118.97940063 C-68.41129746 123.56978411 -64.62088505 127.96157586 -60.62915039 132.26455688 C-59.19555664 134.04190063 -59.19555664 134.04190063 -59.19555664 136.04190063 C-58.53555664 136.04190063 -57.87555664 136.04190063 -57.19555664 136.04190063 C-55.78117258 137.61476747 -54.43951263 139.25330059 -53.13305664 140.91690063 C-50.02118765 144.80923837 -46.8575608 148.60176894 -43.50805664 152.29190063 C-42.77329102 153.10143188 -42.03852539 153.91096313 -41.28149414 154.74502563 C-40.59313477 155.50299438 -39.90477539 156.26096313 -39.19555664 157.04190063 C-33.19555664 163.7085673 -33.19555664 163.7085673 -33.19555664 166.04190063 C-32.53555664 166.04190063 -31.87555664 166.04190063 -31.19555664 166.04190063 C-29.46899414 167.94033813 -29.46899414 167.94033813 -27.57055664 170.41690063 C-26.93891602 171.22901001 -26.30727539 172.04111938 -25.65649414 172.87783813 C-24.19555664 175.04190063 -24.19555664 175.04190063 -24.19555664 177.04190063 C-23.53555664 177.04190063 -22.87555664 177.04190063 -22.19555664 177.04190063 C-22.19555664 177.70190063 -22.19555664 178.36190063 -22.19555664 179.04190063 C-21.53555664 179.04190063 -20.87555664 179.04190063 -20.19555664 179.04190063 C-16.19555664 183.51248887 -16.19555664 183.51248887 -16.19555664 186.04190063 C-15.53555664 186.04190063 -14.87555664 186.04190063 -14.19555664 186.04190063 C-9.19555664 191.51809111 -9.19555664 191.51809111 -9.19555664 194.04190063 C-8.53555664 194.04190063 -7.87555664 194.04190063 -7.19555664 194.04190063 C-5.63122877 195.73464348 -4.14227092 197.49759916 -2.69555664 199.29190063 C-1.90149414 200.26643188 -1.10743164 201.24096313 -0.28930664 202.24502563 C1.3919237 204.49084825 2.68580235 206.48848093 3.80444336 209.04190063 C4.46444336 209.04190063 5.12444336 209.04190063 5.80444336 209.04190063 C9.80444336 213.51248887 9.80444336 213.51248887 9.80444336 216.04190063 C10.46444336 216.04190063 11.12444336 216.04190063 11.80444336 216.04190063 C13.59215243 218.17542883 15.2731716 220.31034121 16.92944336 222.54190063 C17.39737305 223.1619397 17.86530273 223.78197876 18.34741211 224.42080688 C19.50540945 225.9569258 20.65565693 227.49888122 21.80444336 229.04190063 C21.47444336 229.70190063 21.14444336 230.36190063 20.80444336 231.04190063 C13.00652095 231.11170254 5.20867303 231.16486407 -2.58948421 231.19733715 C-6.21129912 231.21293011 -9.83289878 231.23405016 -13.45458984 231.26821899 C-16.95593414 231.30104212 -20.45707264 231.31880143 -23.95855904 231.32653236 C-25.93093281 231.33469569 -27.9032249 231.35807775 -29.87547302 231.38179016 C-38.29418225 231.38335303 -45.17509371 230.74955934 -52.25805664 225.97940063 C-52.89743164 225.34002563 -53.53680664 224.70065063 -54.19555664 224.04190063 C-54.19555664 223.38190063 -54.19555664 222.72190063 -54.19555664 222.04190063 C-54.85555664 222.04190063 -55.51555664 222.04190063 -56.19555664 222.04190063 C-57.18555664 219.56690063 -57.18555664 219.56690063 -58.19555664 217.04190063 C-58.85555664 217.04190063 -59.51555664 217.04190063 -60.19555664 217.04190063 C-61.64868164 215.45205688 -61.64868164 215.45205688 -63.44555664 213.10440063 C-67.32997735 208.12437408 -71.30160703 203.22660905 -75.32055664 198.35440063 C-75.90611328 197.64227417 -76.49166992 196.93014771 -77.0949707 196.19644165 C-80.368622 192.22333556 -83.68631405 188.30822521 -87.12475586 184.47622681 C-88.19555664 183.04190063 -88.19555664 183.04190063 -88.19555664 181.04190063 C-88.85555664 181.04190063 -89.51555664 181.04190063 -90.19555664 181.04190063 C-91.92211914 179.14346313 -91.92211914 179.14346313 -93.82055664 176.66690063 C-94.76801758 175.44873657 -94.76801758 175.44873657 -95.73461914 174.20596313 C-97.19555664 172.04190063 -97.19555664 172.04190063 -97.19555664 170.04190063 C-97.85555664 170.04190063 -98.51555664 170.04190063 -99.19555664 170.04190063 C-99.19555664 169.38190063 -99.19555664 168.72190063 -99.19555664 168.04190063 C-99.85555664 168.04190063 -100.51555664 168.04190063 -101.19555664 168.04190063 C-103.10571289 165.95986938 -103.10571289 165.95986938 -105.25805664 163.22940063 C-105.9709082 162.33608032 -106.68375977 161.44276001 -107.41821289 160.52236938 C-109.19555664 158.04190063 -109.19555664 158.04190063 -110.19555664 155.04190063 C-110.85555664 155.04190063 -111.51555664 155.04190063 -112.19555664 155.04190063 C-113.80189679 153.30798112 -115.33308534 151.50380964 -116.82055664 149.66690063 C-118.04645508 148.17029907 -118.04645508 148.17029907 -119.29711914 146.64346313 C-121.19555664 144.04190063 -121.19555664 144.04190063 -121.19555664 142.04190063 C-121.85555664 142.04190063 -122.51555664 142.04190063 -123.19555664 142.04190063 C-123.19555664 141.38190063 -123.19555664 140.72190063 -123.19555664 140.04190063 C-123.85555664 140.04190063 -124.51555664 140.04190063 -125.19555664 140.04190063 C-129.19555664 135.5713124 -129.19555664 135.5713124 -129.19555664 133.04190063 C-129.85555664 133.04190063 -130.51555664 133.04190063 -131.19555664 133.04190063 C-136.19555664 127.56571016 -136.19555664 127.56571016 -136.19555664 125.04190063 C-136.85555664 125.04190063 -137.51555664 125.04190063 -138.19555664 125.04190063 C-138.19555664 124.38190063 -138.19555664 123.72190063 -138.19555664 123.04190063 C-138.85555664 123.04190063 -139.51555664 123.04190063 -140.19555664 123.04190063 C-141.64086914 121.60830688 -141.64086914 121.60830688 -143.32055664 119.60440063 C-145.31683623 117.22908062 -147.31526873 114.91766334 -149.46899414 112.68252563 C-150.57114258 111.53010376 -150.57114258 111.53010376 -151.69555664 110.35440063 C-152.38649414 109.64928345 -153.07743164 108.94416626 -153.78930664 108.21768188 C-155.19555664 106.04190063 -155.19555664 106.04190063 -155.32055664 103.69033813 C-153.63773425 99.72869376 -150.8024199 97.26667267 -147.69555664 94.35440063 C-146.49565938 93.2067282 -145.29764888 92.05707892 -144.10180664 90.90518188 C-143.30226562 90.15168457 -143.30226562 90.15168457 -142.48657227 89.38296509 C-141.07583898 88.05091091 -141.07583898 88.05091091 -140.19555664 86.04190063 C-139.53555664 86.04190063 -138.87555664 86.04190063 -138.19555664 86.04190063 C-138.19555664 85.38190063 -138.19555664 84.72190063 -138.19555664 84.04190063 C-137.53555664 84.04190063 -136.87555664 84.04190063 -136.19555664 84.04190063 C-136.19555664 83.38190063 -136.19555664 82.72190063 -136.19555664 82.04190063 C-135.53555664 82.04190063 -134.87555664 82.04190063 -134.19555664 82.04190063 C-133.93669678 81.46158081 -133.67783691 80.88126099 -133.41113281 80.28335571 C-132.09994378 77.86559582 -130.64003832 76.16902574 -128.74633789 74.17861938 C-128.06249023 73.45609985 -127.37864258 72.73358032 -126.67407227 71.98916626 C-125.95928711 71.2434436 -125.24450195 70.49772095 -124.50805664 69.72940063 C-123.81260742 68.99527954 -123.1171582 68.26115845 -122.40063477 67.50479126 C-118.51502173 63.41600891 -114.57423097 59.39747675 -110.53222656 55.46304321 C-109.0856427 54.06126832 -109.0856427 54.06126832 -108.19555664 52.04190063 C-107.53555664 52.04190063 -106.87555664 52.04190063 -106.19555664 52.04190063 C-105.86104492 51.21432251 -105.86104492 51.21432251 -105.51977539 50.37002563 C-103.78001567 47.31133304 -101.53791182 45.23451943 -99.00805664 42.79190063 C-93.65204428 37.55452021 -88.36552962 32.2968601 -84.19555664 26.04190063 C-83.53555664 26.04190063 -82.87555664 26.04190063 -82.19555664 26.04190063 C-82.19555664 25.38190063 -82.19555664 24.72190063 -82.19555664 24.04190063 C-81.53555664 24.04190063 -80.87555664 24.04190063 -80.19555664 24.04190063 C-80.19555664 23.38190063 -80.19555664 22.72190063 -80.19555664 22.04190063 C-79.53555664 22.04190063 -78.87555664 22.04190063 -78.19555664 22.04190063 C-77.92767334 21.45094604 -77.65979004 20.85999146 -77.38378906 20.25112915 C-75.40895244 16.57940189 -72.4337209 13.91115368 -69.50805664 10.97940063 C-68.90799805 10.35484985 -68.30793945 9.73029907 -67.68969727 9.08682251 C-67.08963867 8.48289673 -66.48958008 7.87897095 -65.87133789 7.25674438 C-65.33420166 6.71139038 -64.79706543 6.16603638 -64.24365234 5.60415649 C-57.62042989 0.55206441 -51.21695068 0.57690796 -43.16430664 0.53018188 C-41.43948059 0.50325508 -41.43948059 0.50325508 -39.67980957 0.4757843 C-36.01842915 0.42181898 -32.35717594 0.38787197 -28.69555664 0.35440063 C-26.23329904 0.32120566 -23.77105857 0.286714 -21.30883789 0.25088501 C-15.81226969 0.1744868 -10.31580169 0.10548355 -4.81884766 0.06402588 C-3.21248046 0.05047753 -1.60613187 0.03065188 0 0 Z " fill="#0125DF" transform="translate(371.195556640625,137.95809936523438)"/>
<path d="M0 0 C3.32096412 -0.39173344 4.6036022 -0.31155238 7.28125 1.79296875 C8.0134375 2.58316406 8.745625 3.37335938 9.5 4.1875 C10.65822266 5.41726562 10.65822266 5.41726562 11.83984375 6.671875 C12.90912109 7.82429688 12.90912109 7.82429688 14 9 C15.01534272 9.98485899 16.03485608 10.96548353 17.0625 11.9375 C19 14 19 14 19 16 C19.66 16 20.32 16 21 16 C21 16.66 21 17.32 21 18 C21.66 18 22.32 18 23 18 C23 18.66 23 19.32 23 20 C24.32 20.66 25.64 21.32 27 22 C27 22.66 27 23.32 27 24 C27.66 24 28.32 24 29 24 C32.37881204 30.31690947 33.12167691 35.13397628 33.15771484 42.26538086 C33.16279556 42.97823746 33.16787628 43.69109406 33.17311096 44.42555237 C33.1837749 45.96694161 33.19241051 47.50834596 33.19923019 49.049757 C33.2110713 51.49244508 33.23053604 53.93496048 33.25234985 56.37757874 C33.31379981 63.32026406 33.36801351 70.26292869 33.40136719 77.20581055 C33.42234397 81.45869527 33.45766568 85.71125944 33.50212479 89.96396065 C33.51625491 91.58058457 33.52500047 93.19726513 33.52817917 94.81394768 C33.53310339 97.07804687 33.55629714 99.34129851 33.58349609 101.60522461 C33.59562637 103.53452065 33.59562637 103.53452065 33.60800171 105.50279236 C34.03609719 109.32204064 35.09976502 111.68691066 37 115 C37.66666667 116.33333333 38.33333333 117.66666667 39 119 C31.65454046 119.069608 24.30915241 119.12286584 16.96342945 119.15543652 C13.55224239 119.17107139 10.14128151 119.19226914 6.73022461 119.22631836 C2.80585466 119.26524491 -1.11842471 119.2797273 -5.04296875 119.29296875 C-6.26396774 119.30845261 -7.48496674 119.32393646 -8.7429657 119.33988953 C-9.8837709 119.34011612 -11.02457611 119.34034271 -12.19995117 119.34057617 C-13.20144699 119.34723801 -14.20294281 119.35389984 -15.23478699 119.36076355 C-18.60610425 118.9209246 -20.33991954 118.1208752 -23 116 C-25.99427016 111.48301952 -26.43353335 107.44716098 -26.38818359 102.16210938 C-26.39344055 101.4003389 -26.39869751 100.63856842 -26.40411377 99.85371399 C-26.41725502 97.35018049 -26.40859685 94.84728931 -26.3984375 92.34375 C-26.40045993 90.59549844 -26.40337278 88.8472477 -26.40713501 87.09899902 C-26.4115504 83.44075462 -26.40515268 79.78273046 -26.39111328 76.12451172 C-26.37402181 71.44378884 -26.38386721 66.76358208 -26.40183067 62.08287811 C-26.41268978 58.47454973 -26.40921243 54.86634298 -26.4014473 51.25801086 C-26.39945117 49.53249551 -26.40188388 47.80696898 -26.40888596 46.08146667 C-26.4165356 43.66664526 -26.40484779 41.25265072 -26.38818359 38.83789062 C-26.39425629 38.13018021 -26.40032898 37.42246979 -26.40658569 36.6933136 C-26.31686095 29.647518 -23.54327024 25.23224365 -18.875 20.1875 C-18.08609375 19.33285156 -17.2971875 18.47820312 -16.484375 17.59765625 C-13.36595005 14.33703897 -10.18160244 11.15130559 -6.9453125 8.0078125 C-4.9498976 6.04402879 -4.9498976 6.04402879 -3.3671875 3.7421875 C-2.91601562 3.16726562 -2.46484375 2.59234375 -2 2 C-1.34 2 -0.68 2 0 2 C0 1.34 0 0.68 0 0 Z " fill="#0120DD" transform="translate(205,250)"/>
<path d="M0 0 C0.990169 0.00207207 1.980338 0.00414413 3.00051212 0.00627899 C4.07816554 0.01383461 5.15581896 0.02139023 6.26612854 0.0291748 C7.94687422 0.03540234 7.94687422 0.03540234 9.66157436 0.04175568 C13.18420132 0.05687645 16.70669659 0.07993852 20.22926331 0.10534668 C21.8169647 0.11590591 21.8169647 0.11590591 23.43674088 0.12667847 C30.83778993 0.17783021 38.23857734 0.24932898 45.63941956 0.32409668 C47.95781351 0.34662244 50.27620852 0.36904048 52.59460449 0.39135742 C58.60304324 0.44947596 64.61146692 0.50902576 70.61988831 0.56890869 C76.78849941 0.63012313 82.95712411 0.68993561 89.12574768 0.74987793 C101.16026633 0.86702155 113.19476948 0.98568231 125.22926331 1.10534668 C123.89505665 3.86795909 122.64842267 5.94160794 120.47926331 8.12097168 C119.95332581 8.6494873 119.42738831 9.17800293 118.88551331 9.72253418 C118.33895081 10.2613623 117.79238831 10.80019043 117.22926331 11.35534668 C116.68270081 11.90964355 116.13613831 12.46394043 115.57301331 13.03503418 C111.48265001 17.10534668 111.48265001 17.10534668 109.22926331 17.10534668 C109.22926331 17.76534668 109.22926331 18.42534668 109.22926331 19.10534668 C108.56926331 19.10534668 107.90926331 19.10534668 107.22926331 19.10534668 C107.22926331 19.76534668 107.22926331 20.42534668 107.22926331 21.10534668 C106.56926331 21.10534668 105.90926331 21.10534668 105.22926331 21.10534668 C105.22926331 21.76534668 105.22926331 22.42534668 105.22926331 23.10534668 C104.56926331 23.10534668 103.90926331 23.10534668 103.22926331 23.10534668 C103.22926331 23.76534668 103.22926331 24.42534668 103.22926331 25.10534668 C102.56926331 25.10534668 101.90926331 25.10534668 101.22926331 25.10534668 C101.22926331 25.76534668 101.22926331 26.42534668 101.22926331 27.10534668 C98.85426331 29.73034668 98.85426331 29.73034668 96.22926331 32.10534668 C95.56926331 32.10534668 94.90926331 32.10534668 94.22926331 32.10534668 C94.22926331 32.76534668 94.22926331 33.42534668 94.22926331 34.10534668 C93.56926331 34.10534668 92.90926331 34.10534668 92.22926331 34.10534668 C92.22926331 34.76534668 92.22926331 35.42534668 92.22926331 36.10534668 C91.56926331 36.10534668 90.90926331 36.10534668 90.22926331 36.10534668 C90.22926331 36.76534668 90.22926331 37.42534668 90.22926331 38.10534668 C89.56926331 38.10534668 88.90926331 38.10534668 88.22926331 38.10534668 C88.22926331 38.76534668 88.22926331 39.42534668 88.22926331 40.10534668 C86.85719299 41.44519043 86.85719299 41.44519043 84.90113831 43.04284668 C81.40919063 46.00869475 78.18179356 49.12603233 74.99488831 52.41784668 C74.09125549 53.34726074 73.18762268 54.2766748 72.25660706 55.23425293 C70.85489937 56.68327564 69.45338387 58.13254732 68.06373596 59.59313965 C66.69816598 61.02497646 65.31551878 62.44046572 63.93238831 63.85534668 C63.12446838 64.69581543 62.31654846 65.53628418 61.48414612 66.40222168 C59.22926331 68.10534668 59.22926331 68.10534668 57.09645081 68.00939941 C54.17920288 66.59692961 52.23822071 64.46973748 49.97926331 62.16784668 C49.08723206 61.27194824 48.19520081 60.3760498 47.27613831 59.45300293 C45.22926331 57.10534668 45.22926331 57.10534668 45.22926331 55.10534668 C44.56926331 55.10534668 43.90926331 55.10534668 43.22926331 55.10534668 C43.22926331 54.44534668 43.22926331 53.78534668 43.22926331 53.10534668 C42.56926331 53.10534668 41.90926331 53.10534668 41.22926331 53.10534668 C41.22926331 52.44534668 41.22926331 51.78534668 41.22926331 51.10534668 C40.56926331 51.10534668 39.90926331 51.10534668 39.22926331 51.10534668 C39.22926331 50.44534668 39.22926331 49.78534668 39.22926331 49.10534668 C38.56926331 49.10534668 37.90926331 49.10534668 37.22926331 49.10534668 C37.22926331 48.44534668 37.22926331 47.78534668 37.22926331 47.10534668 C36.56926331 47.10534668 35.90926331 47.10534668 35.22926331 47.10534668 C33.81910706 45.67175293 33.81910706 45.67175293 32.16676331 43.66784668 C28.09951808 38.88483366 23.70380291 34.50481011 19.22926331 30.10534668 C14.21563295 25.17583764 9.36144329 20.20805946 4.77906799 14.87341309 C2.05018608 11.76021794 -0.96294565 8.9467059 -3.95042419 6.08581543 C-5.77073669 4.10534668 -5.77073669 4.10534668 -6.77073669 1.10534668 C-4.31811607 -0.12096363 -2.74122518 -0.01204204 0 0 Z " fill="#0229DA" transform="translate(122.77073669433594,137.8946533203125)"/>
<path d="M0 0 C0.99 0.33 1.98 0.66 3 1 C3 1.66 3 2.32 3 3 C3.66 3 4.32 3 5 3 C6.41015625 4.43359375 6.41015625 4.43359375 8.0625 6.4375 C10.75174994 9.60757217 13.53513377 12.58581525 16.5 15.5 C19.9204659 18.87416518 23.10844815 22.35927964 26.2265625 26.01171875 C28.83625686 28.93756551 31.65838479 31.63284472 34.49609375 34.3359375 C36 36 36 36 36 38 C36.66 38 37.32 38 38 38 C38 38.66 38 39.32 38 40 C38.66 40 39.32 40 40 40 C41.48046875 41.50390625 41.48046875 41.50390625 43.1875 43.5625 C45.57042307 46.37147585 47.99161061 49.04923401 50.625 51.625 C58.97190157 59.93413278 58.97190157 59.93413278 59.05859375 63.22265625 C57.42240163 67.51539647 54.33181858 70.16630739 51.0625 73.3125 C50.09280273 74.28026367 50.09280273 74.28026367 49.10351562 75.26757812 C44.28095238 80 44.28095238 80 42 80 C42 80.66 42 81.32 42 82 C41.34 82 40.68 82 40 82 C40 82.66 40 83.32 40 84 C37.625 86.625 37.625 86.625 35 89 C34.34 89 33.68 89 33 89 C33 89.66 33 90.32 33 91 C32.34 91 31.68 91 31 91 C31 91.66 31 92.32 31 93 C30.34 93 29.68 93 29 93 C29 93.66 29 94.32 29 95 C27.59716797 96.37719727 27.59716797 96.37719727 25.6171875 98.00390625 C19.55339855 103.15772599 14.0923286 108.89621231 8.5390625 114.58789062 C7.724375 115.41353516 6.9096875 116.23917969 6.0703125 117.08984375 C5.33570801 117.84128662 4.60110352 118.59272949 3.84423828 119.36694336 C2 121 2 121 0 121 C-1.24858774 115.24676871 -1.09361716 109.61370741 -1.02172852 103.76220703 C-1.01212097 102.63967026 -1.00251343 101.51713348 -0.99261475 100.36058044 C-0.95970071 96.65959247 -0.91933932 92.95872533 -0.87890625 89.2578125 C-0.85459772 86.68806379 -0.83075453 84.11831064 -0.80735779 81.54855347 C-0.75100133 75.48195373 -0.6899607 69.41541779 -0.62663645 63.34888732 C-0.55477779 56.43960793 -0.4889245 49.53027533 -0.42356598 42.62093186 C-0.28904123 28.41388588 -0.14700629 14.20692204 0 0 Z " fill="#0129DA" transform="translate(115,150)"/>
<path d="M0 0 C0.990169 0.00207207 1.980338 0.00414413 3.00051212 0.00627899 C4.07816554 0.01383461 5.15581896 0.02139023 6.26612854 0.0291748 C7.94687422 0.03540234 7.94687422 0.03540234 9.66157436 0.04175568 C13.18420132 0.05687645 16.70669659 0.07993852 20.22926331 0.10534668 C21.8169647 0.11590591 21.8169647 0.11590591 23.43674088 0.12667847 C30.83778993 0.17783021 38.23857734 0.24932898 45.63941956 0.32409668 C47.95781351 0.34662244 50.27620852 0.36904048 52.59460449 0.39135742 C58.60304324 0.44947596 64.61146692 0.50902576 70.61988831 0.56890869 C76.78849941 0.63012313 82.95712411 0.68993561 89.12574768 0.74987793 C101.16026633 0.86702155 113.19476948 0.98568231 125.22926331 1.10534668 C123.89505665 3.86795909 122.64842267 5.94160794 120.47926331 8.12097168 C119.95332581 8.6494873 119.42738831 9.17800293 118.88551331 9.72253418 C118.33895081 10.2613623 117.79238831 10.80019043 117.22926331 11.35534668 C116.68270081 11.90964355 116.13613831 12.46394043 115.57301331 13.03503418 C111.48265001 17.10534668 111.48265001 17.10534668 109.22926331 17.10534668 C109.22926331 17.76534668 109.22926331 18.42534668 109.22926331 19.10534668 C108.56926331 19.10534668 107.90926331 19.10534668 107.22926331 19.10534668 C107.22926331 19.76534668 107.22926331 20.42534668 107.22926331 21.10534668 C106.56926331 21.10534668 105.90926331 21.10534668 105.22926331 21.10534668 C105.22926331 21.76534668 105.22926331 22.42534668 105.22926331 23.10534668 C104.56926331 23.10534668 103.90926331 23.10534668 103.22926331 23.10534668 C103.22926331 23.76534668 103.22926331 24.42534668 103.22926331 25.10534668 C102.56926331 25.10534668 101.90926331 25.10534668 101.22926331 25.10534668 C101.55926331 23.12534668 101.88926331 21.14534668 102.22926331 19.10534668 C103.71426331 19.60034668 103.71426331 19.60034668 105.22926331 20.10534668 C104.73426331 18.12534668 104.73426331 18.12534668 104.22926331 16.10534668 C106.70426331 15.61034668 106.70426331 15.61034668 109.22926331 15.10534668 C109.22926331 14.44534668 109.22926331 13.78534668 109.22926331 13.10534668 C113.46640367 8.2797146 113.46640367 8.2797146 116.41676331 7.60534668 C117.01488831 7.44034668 117.61301331 7.27534668 118.22926331 7.10534668 C118.9519463 5.46219376 119.62247394 3.79473381 120.22926331 2.10534668 C106.96455714 2.18958402 93.69997341 2.28440201 80.43544197 2.39287376 C74.27673232 2.44290149 68.11804037 2.48923082 61.95924377 2.52722168 C56.01993336 2.56399281 50.08076876 2.61033016 44.14158249 2.66341019 C41.87131676 2.68199772 39.60101973 2.6970894 37.33070755 2.70869064 C34.16018365 2.72547869 30.9899969 2.75449534 27.81959534 2.78649902 C26.87301056 2.78865921 25.92642578 2.7908194 24.95115662 2.79304504 C23.65966705 2.80979027 23.65966705 2.80979027 22.34208679 2.82687378 C21.5917473 2.83240454 20.84140781 2.8379353 20.06833076 2.84363365 C17.98148058 2.95284215 17.98148058 2.95284215 16.22926331 5.10534668 C13.84645081 5.30065918 13.84645081 5.30065918 11.10426331 5.23034668 C10.19418518 5.2122998 9.28410706 5.19425293 8.34645081 5.17565918 C7.64777893 5.15245605 6.94910706 5.12925293 6.22926331 5.10534668 C5.84125622 9.22853874 5.84125622 9.22853874 7.47926331 12.85534668 C9.32345726 14.17262808 11.16268168 15.17894802 13.22926331 16.10534668 C13.22926331 16.76534668 13.22926331 17.42534668 13.22926331 18.10534668 C13.88926331 18.10534668 14.54926331 18.10534668 15.22926331 18.10534668 C18.22926331 24.10534668 18.22926331 24.10534668 19.22926331 26.41784668 C20.18780536 28.45537766 20.18780536 28.45537766 23.22926331 29.10534668 C23.88926331 28.11534668 24.54926331 27.12534668 25.22926331 26.10534668 C25.88926331 29.07534668 26.54926331 32.04534668 27.22926331 35.10534668 C28.21926331 35.10534668 29.20926331 35.10534668 30.22926331 35.10534668 C32.41676331 36.98034668 32.41676331 36.98034668 34.22926331 39.10534668 C34.22926331 39.76534668 34.22926331 40.42534668 34.22926331 41.10534668 C34.88926331 41.10534668 35.54926331 41.10534668 36.22926331 41.10534668 C36.22926331 42.09534668 36.22926331 43.08534668 36.22926331 44.10534668 C36.88926331 44.10534668 37.54926331 44.10534668 38.22926331 44.10534668 C38.22926331 44.76534668 38.22926331 45.42534668 38.22926331 46.10534668 C39.21926331 46.10534668 40.20926331 46.10534668 41.22926331 46.10534668 C41.22926331 47.75534668 41.22926331 49.40534668 41.22926331 51.10534668 C40.56926331 51.10534668 39.90926331 51.10534668 39.22926331 51.10534668 C39.22926331 50.44534668 39.22926331 49.78534668 39.22926331 49.10534668 C38.56926331 49.10534668 37.90926331 49.10534668 37.22926331 49.10534668 C37.22926331 48.44534668 37.22926331 47.78534668 37.22926331 47.10534668 C36.56926331 47.10534668 35.90926331 47.10534668 35.22926331 47.10534668 C33.81910706 45.67175293 33.81910706 45.67175293 32.16676331 43.66784668 C28.09951808 38.88483366 23.70380291 34.50481011 19.22926331 30.10534668 C14.21563295 25.17583764 9.36144329 20.20805946 4.77906799 14.87341309 C2.05018608 11.76021794 -0.96294565 8.9467059 -3.95042419 6.08581543 C-5.77073669 4.10534668 -5.77073669 4.10534668 -6.77073669 1.10534668 C-4.31811607 -0.12096363 -2.74122518 -0.01204204 0 0 Z " fill="#0A61EA" transform="translate(122.77073669433594,137.8946533203125)"/>
<path d="M0 0 C0.99 0.33 1.98 0.66 3 1 C3 1.66 3 2.32 3 3 C3.66 3 4.32 3 5 3 C6.41015625 4.43359375 6.41015625 4.43359375 8.0625 6.4375 C10.75174994 9.60757217 13.53513377 12.58581525 16.5 15.5 C19.9204659 18.87416518 23.10844815 22.35927964 26.2265625 26.01171875 C28.83625686 28.93756551 31.65838479 31.63284472 34.49609375 34.3359375 C36 36 36 36 36 38 C36.66 38 37.32 38 38 38 C38 38.66 38 39.32 38 40 C38.66 40 39.32 40 40 40 C41.48046875 41.50390625 41.48046875 41.50390625 43.1875 43.5625 C46.60201725 47.58675247 50.21845349 51.32190005 54 55 C53.505 55.99 53.505 55.99 53 57 C52.2575 56.401875 51.515 55.80375 50.75 55.1875 C48.15045409 53.06196177 48.15045409 53.06196177 45.875 51.5625 C44 50 44 50 42.625 47.625 C39.2172782 42.12021862 34.9631791 39.94150017 29 38 C28.67 37.01 28.34 36.02 28 35 C26.02 34.67 24.04 34.34 22 34 C21.67 32.02 21.34 30.04 21 28 C20.34 28 19.68 28 19 28 C19 27.34 19 26.68 19 26 C17.68 26.33 16.36 26.66 15 27 C15 25.68 15 24.36 15 23 C14.34 23 13.68 23 13 23 C13 21.02 13 19.04 13 17 C10.69 17.33 8.38 17.66 6 18 C6.020625 17.071875 6.04125 16.14375 6.0625 15.1875 C6.15769604 11.97713989 6.15769604 11.97713989 5 9 C4.34 9 3.68 9 3 9 C2.67 11.64 2.34 14.28 2 17 C2.66 17.33 3.32 17.66 4 18 C3.67 18.99 3.34 19.98 3 21 C3.185625 21.804375 3.37125 22.60875 3.5625 23.4375 C4 26 4 26 3.04627991 27.73158264 C1.61146178 30.84238151 1.72566469 33.43643442 1.69702148 36.85717773 C1.68858215 37.53913712 1.68014282 38.2210965 1.67144775 38.92372131 C1.64567923 41.17701948 1.6335204 43.43018594 1.62109375 45.68359375 C1.60490057 47.2610017 1.58771868 48.83839979 1.56959534 50.41578674 C1.52389839 54.57493455 1.48913013 58.73409638 1.45739746 62.89337158 C1.40559108 69.51743767 1.3395194 76.14135361 1.26918221 82.76524544 C1.24668381 85.06088655 1.23018694 87.35651028 1.21446228 89.65220642 C1.14195626 98.13555167 0.7890788 106.54822051 0 115 C-0.33 115 -0.66 115 -1 115 C-0.67 77.05 -0.34 39.1 0 0 Z " fill="#053EDF" transform="translate(115,150)"/>
<path d="M0 0 C0.99 0.33 1.98 0.66 3 1 C4.0625 3.3125 4.0625 3.3125 5 6 C5.85790183 8.21771064 5.85790183 8.21771064 7 10 C7.99 10.33 8.98 10.66 10 11 C11.5703125 12.9609375 11.5703125 12.9609375 13.125 15.375 C13.64320313 16.16648437 14.16140625 16.95796875 14.6953125 17.7734375 C16 20 16 20 17 23 C19.17538467 25.09142538 19.17538467 25.09142538 21.8125 27.125 C22.68519531 27.82882812 23.55789063 28.53265625 24.45703125 29.2578125 C28.46535036 32.00391131 31.80037977 32.12432347 36.59472656 32.11352539 C37.71558655 32.11344986 38.83644653 32.11337433 39.99127197 32.11329651 C41.19555847 32.10813522 42.39984497 32.10297394 43.640625 32.09765625 C45.49660309 32.09553383 45.49660309 32.09553383 47.39007568 32.09336853 C50.67144941 32.0887211 53.95277373 32.07974347 57.23413086 32.06866455 C60.58577011 32.0584152 63.93741148 32.05394859 67.2890625 32.04882812 C73.85939431 32.03780025 80.42969311 32.02106296 87 32 C86.38003922 30.70590711 85.75383647 29.41480327 85.125 28.125 C84.77695312 27.40570313 84.42890625 26.68640625 84.0703125 25.9453125 C83.03442457 23.84864981 83.03442457 23.84864981 81 22 C81.375 19.875 81.375 19.875 82 18 C82.495 19.485 82.495 19.485 83 21 C83.66 21 84.32 21 85 21 C86.78770907 23.1335282 88.46872824 25.26844058 90.125 27.5 C90.59292969 28.12003906 91.06085938 28.74007813 91.54296875 29.37890625 C92.70096609 30.91502517 93.85121357 32.45698059 95 34 C94.505 34.99 94.505 34.99 94 36 C86.20207759 36.0698019 78.40422967 36.12296344 70.60607243 36.15543652 C66.98425752 36.17102948 63.36265786 36.19214953 59.7409668 36.22631836 C56.2396225 36.25914149 52.738484 36.2769008 49.2369976 36.28463173 C47.26462383 36.29279505 45.29233174 36.31617711 43.32008362 36.33988953 C34.90137439 36.3414524 28.02046293 35.70765871 20.9375 30.9375 C20.298125 30.298125 19.65875 29.65875 19 29 C19 28.34 19 27.68 19 27 C18.34 27 17.68 27 17 27 C16.34 25.35 15.68 23.7 15 22 C14.34 22 13.68 22 13 22 C11.68846237 20.53190495 10.45005925 18.99804216 9.25 17.4375 C6.75822015 14.2123078 4.23510713 11.14890146 1.4375 8.1875 C-1.01684126 5.39576951 -1.01684126 5.39576951 -0.875 2.0625 C-0.58625 1.381875 -0.2975 0.70125 0 0 Z " fill="#5D6FC2" transform="translate(298,333)"/>
<path d="M0 0 C1 2 1 2 0.57080078 3.68481445 C-0.20650933 6.8376082 -0.12992454 9.79587265 -0.1328125 13.04296875 C-0.13417709 13.74800034 -0.13554169 14.45303192 -0.13694763 15.1794281 C-0.13899063 17.51549811 -0.13260054 19.85144261 -0.125 22.1875 C-0.12378143 22.98847107 -0.12256287 23.78944214 -0.12130737 24.61468506 C-0.09715677 38.28798136 0.12260904 51.95553797 0.4375 65.625 C0.4570575 66.52761566 0.47661499 67.43023132 0.49676514 68.36019897 C0.55366294 70.9199859 0.61733774 73.4795026 0.68359375 76.0390625 C0.70031631 76.80302841 0.71703888 77.56699432 0.73426819 78.35411072 C0.82293033 81.47851633 1.00499618 84.01498854 2 87 C2.66 87 3.32 87 4 87 C4 87.99 4 88.98 4 90 C23.14 90.33 42.28 90.66 62 91 C62 91.33 62 91.66 62 92 C54.65454046 92.069608 47.30915241 92.12286584 39.96342945 92.15543652 C36.55224239 92.17107139 33.14128151 92.19226914 29.73022461 92.22631836 C25.80585466 92.26524491 21.88157529 92.2797273 17.95703125 92.29296875 C16.73603226 92.30845261 15.51503326 92.32393646 14.2570343 92.33988953 C13.1162291 92.34011612 11.97542389 92.34034271 10.80004883 92.34057617 C9.79855301 92.34723801 8.79705719 92.35389984 7.76521301 92.36076355 C4.39389575 91.9209246 2.66008046 91.1208752 0 89 C-3.01272494 84.46522292 -3.42507662 80.42060198 -3.35644531 75.11450195 C-3.35848969 74.3479126 -3.36053406 73.58132324 -3.36264038 72.79150391 C-3.36563328 70.27351535 -3.34721968 67.75619128 -3.328125 65.23828125 C-3.32506521 63.48284568 -3.32319076 61.72740768 -3.32244873 59.9719696 C-3.31785538 56.30112349 -3.30346402 52.63049794 -3.28125 48.9597168 C-3.25290587 44.25194059 -3.24203103 39.5443374 -3.2375679 34.83648396 C-3.23341463 31.2154314 -3.22359892 27.59441384 -3.21169281 23.97337914 C-3.20599308 22.23701443 -3.20123339 20.50064639 -3.19742584 18.7642765 C-3.19056143 16.34189545 -3.17692969 13.91965167 -3.16113281 11.49731445 C-3.16001495 10.77881821 -3.15889709 10.06032196 -3.15774536 9.3200531 C-3.13137624 6.27142026 -2.97218315 3.91654946 -2 1 C-1.34 0.67 -0.68 0.34 0 0 Z " fill="#5B71C8" transform="translate(182,277)"/>
<path d="M0 0 C1.98 0.99 1.98 0.99 4 2 C4 2.66 4 3.32 4 4 C4.66 4 5.32 4 6 4 C9.39820697 10.35316956 10.146855 15.50436147 10.20532227 22.63598633 C10.21522186 23.38774139 10.22512146 24.13949646 10.23532104 24.91403198 C10.26678432 27.38666691 10.29163314 29.85932101 10.31640625 32.33203125 C10.3369889 34.05124904 10.35798571 35.77046191 10.37937927 37.4896698 C10.4344646 42.00560518 10.48393337 46.52158521 10.53222656 51.03759766 C10.58254068 55.64945428 10.63817493 60.26124641 10.69335938 64.87304688 C10.80077526 73.91530943 10.90225676 82.95762808 11 92 C9.68 91.67 8.36 91.34 7 91 C7.00079559 90.02582626 7.00159119 89.05165253 7.00241089 88.04795837 C7.00601842 78.85230075 6.97814846 69.65720114 6.9197216 60.46172237 C6.89069015 55.73452063 6.87262232 51.00781395 6.87988281 46.28051758 C6.88648621 41.71545826 6.86393414 37.15137632 6.82144547 32.58651924 C6.81033214 30.847911 6.80959813 29.10920343 6.81957626 27.3705883 C7.2874345 16.69467873 7.2874345 16.69467873 2.94970703 7.37719727 C1.97630371 6.59272217 1.00290039 5.80824707 0 5 C0.66 4.34 1.32 3.68 2 3 C1.34 2.01 0.68 1.02 0 0 Z " fill="#465EC6" transform="translate(228,270)"/>
<path d="M0 0 C3.32096412 -0.39173344 4.6036022 -0.31155238 7.28125 1.79296875 C8.0134375 2.58316406 8.745625 3.37335938 9.5 4.1875 C10.65822266 5.41726562 10.65822266 5.41726562 11.83984375 6.671875 C12.90912109 7.82429688 12.90912109 7.82429688 14 9 C15.01534272 9.98485899 16.03485608 10.96548353 17.0625 11.9375 C19 14 19 14 19 16 C19.66 16 20.32 16 21 16 C21 16.66 21 17.32 21 18 C21.66 18 22.32 18 23 18 C23 18.66 23 19.32 23 20 C20.75 20.75 20.75 20.75 18 21 C15.15539791 18.90838082 13.99467749 16.98914207 12.4375 13.8125 C11.25954913 10.69717096 11.25954913 10.69717096 8 10 C7.60425781 10.50789063 7.20851562 11.01578125 6.80078125 11.5390625 C5 13 5 13 2.73046875 12.8984375 C1.89128906 12.72570312 1.05210937 12.55296875 0.1875 12.375 C-3.44131716 11.81831575 -3.44131716 11.81831575 -6.8125 12.9296875 C-8.27367373 14.21582479 -9.63947037 15.60783014 -11 17 C-12.65948148 18.01187895 -14.32580562 19.0126546 -16 20 C-17.68477344 21.31037934 -19.35648543 22.63823078 -21 24 C-19.66107286 21.0103129 -18.19457518 18.96346478 -15.84765625 16.6875 C-15.23599609 16.08679688 -14.62433594 15.48609375 -13.99414062 14.8671875 C-13.35669922 14.25101562 -12.71925781 13.63484375 -12.0625 13 C-7.36502884 8.512177 -7.36502884 8.512177 -3.18359375 3.5625 C-2.79300781 3.046875 -2.40242188 2.53125 -2 2 C-1.34 2 -0.68 2 0 2 C0 1.34 0 0.68 0 0 Z " fill="#011FD7" transform="translate(205,250)"/>
<path d="M0 0 C6.625 -0.125 6.625 -0.125 10 1 C9.34 2.65 8.68 4.3 8 6 C7.34 6 6.68 6 6 6 C5.72905518 6.58934326 5.45811035 7.17868652 5.17895508 7.78588867 C4.01489469 9.97202734 2.78094952 11.58324069 1.13671875 13.42578125 C0.57919922 14.05806641 0.02167969 14.69035156 -0.55273438 15.34179688 C-1.13345703 15.99212891 -1.71417969 16.64246094 -2.3125 17.3125 C-5.67507151 21.08634866 -8.93076247 24.80742451 -11.79296875 28.98046875 C-12.52128906 29.97691406 -13.24960937 30.97335938 -14 32 C-14.66 32 -15.32 32 -16 32 C-16 32.66 -16 33.32 -16 34 C-16.66 34 -17.32 34 -18 34 C-18.2475 34.598125 -18.495 35.19625 -18.75 35.8125 C-20.16370012 38.28647521 -21.65055383 39.43370255 -24 41 C-23.505 38.03 -23.505 38.03 -23 35 C-22.34 35 -21.68 35 -21 35 C-21 34.01 -21 33.02 -21 32 C-20.01 32 -19.02 32 -18 32 C-17.67 30.68 -17.34 29.36 -17 28 C-17.66 28 -18.32 28 -19 28 C-18.8125 26.125 -18.8125 26.125 -18 24 C-15.10888212 22.47835901 -13.28176588 22 -10 22 C-10 21.34 -10 20.68 -10 20 C-9.01 20 -8.02 20 -7 20 C-7.33 19.01 -7.66 18.02 -8 17 C-7.34 17 -6.68 17 -6 17 C-6 16.34 -6 15.68 -6 15 C-6.99 14.67 -7.98 14.34 -9 14 C-7.35 12.02 -5.7 10.04 -4 8 C-3.67 8.66 -3.34 9.32 -3 10 C-1.35 9.34 0.3 8.68 2 8 C2 7.01 2 6.02 2 5 C1.01 5.33 0.02 5.66 -1 6 C-1.33 5.01 -1.66 4.02 -2 3 C1.465 2.505 1.465 2.505 5 2 C2.525 1.505 2.525 1.505 0 1 C0 0.67 0 0.34 0 0 Z " fill="#1833CA" transform="translate(369,138)"/>
<path d="M0 0 C40.59 0 81.18 0 123 0 C121.42134156 3.15731688 120.5886285 4.66599489 118.25 7.015625 C117.7240625 7.54414063 117.198125 8.07265625 116.65625 8.6171875 C116.1096875 9.15601563 115.563125 9.69484375 115 10.25 C114.4534375 10.80429688 113.906875 11.35859375 113.34375 11.9296875 C109.2533867 16 109.2533867 16 107 16 C107 16.66 107 17.32 107 18 C106.34 18 105.68 18 105 18 C105 18.66 105 19.32 105 20 C104.34 20 103.68 20 103 20 C103 20.66 103 21.32 103 22 C102.34 22 101.68 22 101 22 C101 22.66 101 23.32 101 24 C100.34 24 99.68 24 99 24 C99.33 22.02 99.66 20.04 100 18 C101.485 18.495 101.485 18.495 103 19 C102.505 17.02 102.505 17.02 102 15 C104.475 14.505 104.475 14.505 107 14 C107 13.34 107 12.68 107 12 C111.23714037 7.17436792 111.23714037 7.17436792 114.1875 6.5 C114.785625 6.335 115.38375 6.17 116 6 C116.66 4.35 117.32 2.7 118 1 C79.06 1 40.12 1 0 1 C0 0.67 0 0.34 0 0 Z " fill="#244598" transform="translate(125,139)"/>
<path d="M0 0 C1.32 0 2.64 0 4 0 C7 3.21428571 7 3.21428571 7 6 C-0.79621694 6.02528819 -8.59242336 6.04284068 -16.38867188 6.05493164 C-19.04264725 6.05997042 -21.69661984 6.06680151 -24.35058594 6.07543945 C-28.15821011 6.08752489 -31.96579769 6.09323275 -35.7734375 6.09765625 C-36.96617279 6.10281754 -38.15890808 6.10797882 -39.38778687 6.11329651 C-40.48877716 6.11337204 -41.58976746 6.11344757 -42.72412109 6.11352539 C-44.1830629 6.11685631 -44.1830629 6.11685631 -45.67147827 6.12025452 C-48 6 -48 6 -50 5 C-50 4.34 -50 3.68 -50 3 C-33.2565914 1.99320382 -16.74720404 2.10108119 0 3 C0 2.01 0 1.02 0 0 Z " fill="#0A20AD" transform="translate(236,362)"/>
<path d="M0 0 C2.04119788 1.61594832 4.04072937 3.2856382 6 5 C6 5.66 6 6.32 6 7 C6.66 7 7.32 7 8 7 C9.7265625 8.8984375 9.7265625 8.8984375 11.625 11.375 C12.25664062 12.18710937 12.88828125 12.99921875 13.5390625 13.8359375 C15 16 15 16 15 18 C15.66 18 16.32 18 17 18 C17 18.66 17 19.32 17 20 C17.66 20 18.32 20 19 20 C23 24.47058824 23 24.47058824 23 27 C23.66 27 24.32 27 25 27 C30 32.47619048 30 32.47619048 30 35 C30.66 35 31.32 35 32 35 C33.5078125 36.53125 33.5078125 36.53125 35.125 38.5 C35.66382813 39.1496875 36.20265625 39.799375 36.7578125 40.46875 C37.16773438 40.9740625 37.57765625 41.479375 38 42 C37.505 42.99 37.505 42.99 37 44 C36.401875 43.34 35.80375 42.68 35.1875 42 C33.12498166 39.6626154 33.12498166 39.6626154 30 40 C29.566875 39.484375 29.13375 38.96875 28.6875 38.4375 C28.130625 37.963125 27.57375 37.48875 27 37 C23.85078091 37.23283149 23.85078091 37.23283149 21 38 C19.9364226 34.80926781 20.10980117 34.06624043 21 31 C21 30.34 21 29.68 21 29 C20.401875 28.814375 19.80375 28.62875 19.1875 28.4375 C16.46959551 26.65144848 15.96975541 24.77803947 14.859375 21.8046875 C13.963226 19.66365051 13.963226 19.66365051 11.3125 17.3125 C10.549375 16.549375 9.78625 15.78625 9 15 C9 13.68 9 12.36 9 11 C8.401875 10.773125 7.80375 10.54625 7.1875 10.3125 C3.36282569 8.01769541 1.88498937 3.91497793 0 0 Z " fill="#021FD8" transform="translate(332,297)"/>
<path d="M0 0 C20.13 0 40.26 0 61 0 C60.67 1.65 60.34 3.3 60 5 C59.05125 5.2475 58.1025 5.495 57.125 5.75 C53.91306809 6.6857077 53.91306809 6.6857077 52.625 9.125 C52.41875 9.74375 52.2125 10.3625 52 11 C51 8 51 8 50 3 C25.745 2.505 25.745 2.505 1 2 C0.67 1.34 0.34 0.68 0 0 Z " fill="#011ED0" transform="translate(182,140)"/>
<path d="M0 0 C1.32 0.66 2.64 1.32 4 2 C2.63055898 4.94956528 1.12169591 7.52468811 -1 10 C-1.66 10 -2.32 10 -3 10 C-3.22558594 10.54527344 -3.45117188 11.09054688 -3.68359375 11.65234375 C-5.39136759 14.69795822 -7.67023756 17.05358162 -10.0625 19.5625 C-14.63942235 24.44056553 -18.89312507 29.46022088 -23.02734375 34.72265625 C-24.8756113 36.85639879 -26.67650713 38.41461896 -29 40 C-28.43768609 36.06380262 -27.38314183 33.20807554 -25 30 C-24.01 30 -23.02 30 -22 30 C-22 29.01 -22 28.02 -22 27 C-21.34 27 -20.68 27 -20 27 C-20 26.01 -20 25.02 -20 24 C-19.01 23.34 -18.02 22.68 -17 22 C-16.67 21.01 -16.34 20.02 -16 19 C-16.66 18.67 -17.32 18.34 -18 18 C-17.38125 17.71125 -16.7625 17.4225 -16.125 17.125 C-13.86674235 16.06279958 -13.86674235 16.06279958 -12 14 C-11.01 14 -10.02 14 -9 14 C-8.34 12.68 -7.68 11.36 -7 10 C-6.34 10 -5.68 10 -5 10 C-5 9.34 -5 8.68 -5 8 C-4.34 7.67 -3.68 7.34 -3 7 C-2.34786708 4.97536745 -2.34786708 4.97536745 -2 3 C-1.34 3 -0.68 3 0 3 C0 2.01 0 1.02 0 0 Z " fill="#3B50C3" transform="translate(341,177)"/>
<path d="M0 0 C0.99 0.33 1.98 0.66 3 1 C3 1.66 3 2.32 3 3 C3.66 3 4.32 3 5 3 C6.625 5.5 6.625 5.5 8 8 C5.03824877 7.38722388 3.61941217 6.74627478 1 5 C1.00222061 6.18635544 1.00444122 7.37271088 1.00672913 8.59501648 C1.02707186 19.81938424 1.04202553 31.04374823 1.05181217 42.2681303 C1.05701284 48.03756674 1.0640589 53.8069882 1.07543945 59.57641602 C1.08636896 65.15259255 1.09229801 70.72875475 1.09487724 76.30494118 C1.09671345 78.42379799 1.10029883 80.5426541 1.10573006 82.66150475 C1.1323596 93.48885575 1.13059641 104.21923325 0 115 C-0.33 115 -0.66 115 -1 115 C-0.67 77.05 -0.34 39.1 0 0 Z " fill="#4B66A9" transform="translate(115,150)"/>
<path d="M0 0 C1.4606285 2.64738916 2 3.89448334 2 7 C3.32 7 4.64 7 6 7 C6.12375 8.175625 6.12375 8.175625 6.25 9.375 C6.72323153 12.12283152 6.72323153 12.12283152 8.9375 13.25 C9.618125 13.4975 10.29875 13.745 11 14 C11.66 14.33 12.32 14.66 13 15 C13 15.66 13 16.32 13 17 C13.99 17.33 14.98 17.66 16 18 C16.72045764 19.9812585 17.38001259 21.98504093 18 24 C18.556875 24.886875 19.11375 25.77375 19.6875 26.6875 C20.120625 27.450625 20.55375 28.21375 21 29 C20.67 29.99 20.34 30.98 20 32 C18.99406757 30.8803014 17.9954151 29.7540588 17 28.625 C16.443125 27.99851562 15.88625 27.37203125 15.3125 26.7265625 C14 25 14 25 14 23 C13.34 23 12.68 23 12 23 C10.39365985 21.26608049 8.8624713 19.461909 7.375 17.625 C6.55773437 16.62726563 5.74046875 15.62953125 4.8984375 14.6015625 C3 12 3 12 3 10 C2.34 10 1.68 10 1 10 C1 9.34 1 8.68 1 8 C0.34 8 -0.32 8 -1 8 C-2.38938077 6.03852126 -3.7260411 4.03833424 -5 2 C-4.01 1.67 -3.02 1.34 -2 1 C-1.34 0.67 -0.68 0.34 0 0 Z " fill="#0C28C3" transform="translate(247,270)"/>
<path d="M0 0 C-1.98 0.33 -3.96 0.66 -6 1 C-6 1.66 -6 2.32 -6 3 C-6.99 3.66 -7.98 4.32 -9 5 C-9.433125 6.4540625 -9.433125 6.4540625 -9.875 7.9375 C-11.24890568 11.67757658 -12.5643618 12.19628995 -16 14 C-16.99 15.485 -16.99 15.485 -18 17 C-18.7425 17.268125 -19.485 17.53625 -20.25 17.8125 C-23.5029696 19.21719142 -25.15777068 21.03747426 -27.47265625 23.66015625 C-29.26816672 25.235246 -30.67248916 25.59456263 -33 26 C-33 25.34 -33 24.68 -33 24 C-32.34 24 -31.68 24 -31 24 C-31 23.34 -31 22.68 -31 22 C-30.34 22 -29.68 22 -29 22 C-29 21.34 -29 20.68 -29 20 C-28.34 20 -27.68 20 -27 20 C-26.7321167 19.40904541 -26.4642334 18.81809082 -26.18823242 18.20922852 C-24.2133958 14.53750125 -21.23816426 11.86925305 -18.3125 8.9375 C-17.71244141 8.31294922 -17.11238281 7.68839844 -16.49414062 7.04492188 C-12.23642693 2.75976857 -6.47574455 -2.8493276 0 0 Z " fill="#0229D5" transform="translate(320,140)"/>
<path d="M0 0 C1.32 0.33 2.64 0.66 4 1 C4 1.66 4 2.32 4 3 C2.59936523 4.37719727 2.59936523 4.37719727 0.62109375 6.00390625 C-4.51775641 10.37255185 -9.20762994 15.13458176 -13.9375 19.9375 C-15.63184327 21.65718872 -17.32833277 23.37476647 -19.02734375 25.08984375 C-19.76718506 25.84128662 -20.50702637 26.59272949 -21.26928711 27.36694336 C-23 29 -23 29 -24 29 C-23.67 26.69 -23.34 24.38 -23 22 C-21.35 21.67 -19.7 21.34 -18 21 C-18 20.01 -18 19.02 -18 18 C-17.34 18 -16.68 18 -16 18 C-15.67 17.01 -15.34 16.02 -15 15 C-14.34 15.33 -13.68 15.66 -13 16 C-13 15.01 -13 14.02 -13 13 C-12.34 12.67 -11.68 12.34 -11 12 C-10.67 11.01 -10.34 10.02 -10 9 C-9.01 9.33 -8.02 9.66 -7 10 C-6.896875 9.4225 -6.79375 8.845 -6.6875 8.25 C-5.88350079 5.61872985 -4.86932485 4.01311907 -3 2 C-2.01 2 -1.02 2 0 2 C0 1.34 0 0.68 0 0 Z " fill="#3E4BBA" transform="translate(140,242)"/>
<path d="M0 0 C0.33 0 0.66 0 1 0 C1.02505615 1.22630127 1.0501123 2.45260254 1.07592773 3.71606445 C1.17003054 8.2615827 1.27024433 12.80694917 1.37231445 17.35229492 C1.41565241 19.32035779 1.45732832 21.28845798 1.49731445 23.2565918 C1.55504445 26.0839361 1.61873116 28.91109271 1.68359375 31.73828125 C1.70030624 32.61962234 1.71701874 33.50096344 1.73423767 34.40901184 C1.75418289 35.22963608 1.77412811 36.05026031 1.79467773 36.89575195 C1.81022202 37.61745071 1.8257663 38.33914948 1.84178162 39.0827179 C1.94195257 41.22108144 1.94195257 41.22108144 3 44 C3.66 44 4.32 44 5 44 C5 44.99 5 45.98 5 47 C24.14 47.33 43.28 47.66 63 48 C63 48.33 63 48.66 63 49 C55.65454046 49.069608 48.30915241 49.12286584 40.96342945 49.15543652 C37.55224239 49.17107139 34.14128151 49.19226914 30.73022461 49.22631836 C26.80585466 49.26524491 22.88157529 49.2797273 18.95703125 49.29296875 C17.73603226 49.30845261 16.51503326 49.32393646 15.2570343 49.33988953 C14.1162291 49.34011612 12.97542389 49.34034271 11.80004883 49.34057617 C10.79855301 49.34723801 9.79705719 49.35389984 8.76521301 49.36076355 C5.22583115 48.89899805 2.54027319 47.54027319 0 45 C-0.0928726 43.58774954 -0.11746772 42.17091066 -0.11352539 40.75561523 C-0.11344986 39.85475693 -0.11337433 38.95389862 -0.11329651 38.02574158 C-0.10813522 37.04658279 -0.10297394 36.06742401 -0.09765625 35.05859375 C-0.0962413 34.06118668 -0.09482635 33.0637796 -0.09336853 32.03614807 C-0.08775114 28.83656876 -0.07519571 25.63705831 -0.0625 22.4375 C-0.05748724 20.27408955 -0.05292395 18.11067801 -0.04882812 15.94726562 C-0.03777607 10.63148675 -0.02102104 5.31574829 0 0 Z " fill="#7F92E2" transform="translate(181,320)"/>
<path d="M0 0 C0.66 0 1.32 0 2 0 C3.55078125 1.64453125 3.55078125 1.64453125 5.3125 3.8125 C7.95326296 6.93390392 10.26711964 9.19011861 14 11 C14.66 10.01 15.32 9.02 16 8 C16.66 10.97 17.32 13.94 18 17 C18.99 17 19.98 17 21 17 C23.1875 18.875 23.1875 18.875 25 21 C25 21.66 25 22.32 25 23 C25.66 23 26.32 23 27 23 C27 23.99 27 24.98 27 26 C27.66 26 28.32 26 29 26 C29 26.66 29 27.32 29 28 C29.99 28 30.98 28 32 28 C32 29.65 32 31.3 32 33 C31.34 33 30.68 33 30 33 C30 32.34 30 31.68 30 31 C29.34 31 28.68 31 28 31 C28 30.34 28 29.68 28 29 C27.34 29 26.68 29 26 29 C24.60302734 27.57739258 24.60302734 27.57739258 22.9609375 25.58203125 C18.03926044 19.79159782 12.58432495 14.56992911 7.14453125 9.27148438 C6.36722656 8.50513672 5.58992187 7.73878906 4.7890625 6.94921875 C4.08475098 6.26174561 3.38043945 5.57427246 2.65478516 4.8659668 C1 3 1 3 0 0 Z " fill="#7797DD" transform="translate(132,156)"/>
<path d="M0 0 C0.99 0.33 1.98 0.66 3 1 C4.0625 3.3125 4.0625 3.3125 5 6 C5.85790183 8.21771064 5.85790183 8.21771064 7 10 C7.99 10.33 8.98 10.66 10 11 C11.5703125 12.9609375 11.5703125 12.9609375 13.125 15.375 C13.64320313 16.16648437 14.16140625 16.95796875 14.6953125 17.7734375 C16 20 16 20 17 23 C18.63782221 24.41384653 20.33361689 25.76158233 22.0625 27.0625 C23.74402527 28.32895031 25.39984947 29.63217622 27 31 C27 31.66 27 32.32 27 33 C27.66 33.33 28.32 33.66 29 34 C24.61537866 33.49890042 22.1999003 32.01704885 19 29 C19 28.34 19 27.68 19 27 C18.34 27 17.68 27 17 27 C16.34 25.35 15.68 23.7 15 22 C14.34 22 13.68 22 13 22 C11.68846237 20.53190495 10.45005925 18.99804216 9.25 17.4375 C6.75822015 14.2123078 4.23510713 11.14890146 1.4375 8.1875 C-1.01684126 5.39576951 -1.01684126 5.39576951 -0.875 2.0625 C-0.58625 1.381875 -0.2975 0.70125 0 0 Z " fill="#4E64D0" transform="translate(298,333)"/>
<path d="M0 0 C0.99 0.33 1.98 0.66 3 1 C1.625 3 1.625 3 0 5 C-0.66 5 -1.32 5 -2 5 C-2.268125 5.5775 -2.53625 6.155 -2.8125 6.75 C-4 9 -4 9 -5.6875 10.9375 C-7.29365667 12.98432219 -7.29365667 12.98432219 -6.6875 15.75 C-6.460625 16.4925 -6.23375 17.235 -6 18 C-5.34 18 -4.68 18 -4 18 C-4 18.66 -4 19.32 -4 20 C-3.34 20 -2.68 20 -2 20 C-0.43567213 21.69274284 1.05328572 23.45569852 2.5 25.25 C3.2940625 26.22453125 4.088125 27.1990625 4.90625 28.203125 C6.58748034 30.44894762 7.88135899 32.4465803 9 35 C6.5 33.625 6.5 33.625 4 32 C4 31.34 4 30.68 4 30 C3.401875 29.731875 2.80375 29.46375 2.1875 29.1875 C-2.96995633 26.38773799 -7.59204359 20.51989103 -9.75 15.125 C-10.08218241 12.30144951 -9.19667052 10.53412581 -8 8 C-7.34 8 -6.68 8 -6 8 C-6 6.68 -6 5.36 -6 4 C-5.01 3.67 -4.02 3.34 -3 3 C-1.33289654 1.50014391 -1.33289654 1.50014391 0 0 Z " fill="#6A81C8" transform="translate(297,232)"/>
<path d="M0 0 C0.99 0.33 1.98 0.66 3 1 C1.02409073 6.9277278 -1.39969281 10.0716466 -7 13 C-7.66 13 -8.32 13 -9 13 C-9 13.66 -9 14.32 -9 15 C-9.99 15 -10.98 15 -12 15 C-12.12375 15.61875 -12.2475 16.2375 -12.375 16.875 C-13 19 -13 19 -15 21 C-14.67958603 23.60280568 -14.67958603 23.60280568 -14 26 C-14.99 26 -15.98 26 -17 26 C-19 24 -19 24 -19.03125 21.79296875 C-17.50720535 17.66534783 -14.66753103 15.28164002 -11.5 12.3125 C-10.30010274 11.16482757 -9.10209224 10.01517829 -7.90625 8.86328125 C-7.37322266 8.36094971 -6.84019531 7.85861816 -6.29101562 7.34106445 C-4.88028234 6.00901027 -4.88028234 6.00901027 -4 4 C-3.34 4 -2.68 4 -2 4 C-2 3.34 -2 2.68 -2 2 C-1.34 2 -0.68 2 0 2 C0 1.34 0 0.68 0 0 Z " fill="#566CC8" transform="translate(235,220)"/>
<path d="M0 0 C1.98 0.99 1.98 0.99 4 2 C4.86625 2.33 5.7325 2.66 6.625 3 C9 4 9 4 11 6 C11.39764263 7.98821313 11.73775349 9.98944339 12 12 C9.69 12.33 7.38 12.66 5 13 C5.020625 12.071875 5.04125 11.14375 5.0625 10.1875 C5.15769604 6.97713989 5.15769604 6.97713989 4 4 C3.34 4 2.68 4 2 4 C1.67 6.64 1.34 9.28 1 12 C1.66 12.33 2.32 12.66 3 13 C2.67 13.99 2.34 14.98 2 16 C2.309375 17.2065625 2.309375 17.2065625 2.625 18.4375 C2.74875 19.283125 2.8725 20.12875 3 21 C2.01 22.32 1.02 23.64 0 25 C0 16.75 0 8.5 0 0 Z " fill="#0C65E3" transform="translate(116,155)"/>
<path d="M0 0 C6.75 2.75 6.75 2.75 9 5 C11.58379443 5.16313739 14.0589733 5.20734025 16.640625 5.16015625 C17.78032745 5.1523539 17.78032745 5.1523539 18.9430542 5.14439392 C21.37889526 5.12655265 23.81431953 5.0954146 26.25 5.0625 C28.67135932 5.0347929 31.09265321 5.01004602 33.51409912 4.99131775 C35.02119428 4.97916376 36.52825885 4.96166372 38.03521729 4.93800354 C42.14058033 4.89935971 45.97374159 5.19403752 50 6 C50.185625 5.0409375 50.185625 5.0409375 50.375 4.0625 C50.58125 3.381875 50.7875 2.70125 51 2 C51.66 1.67 52.32 1.34 53 1 C53.66 2.65 54.32 4.3 55 6 C52.20609564 6.93130145 50.49661573 7.13110463 47.60791016 7.14526367 C46.28105698 7.15483345 46.28105698 7.15483345 44.92739868 7.16459656 C43.97424774 7.16570938 43.0210968 7.1668222 42.0390625 7.16796875 C41.05634369 7.17129715 40.07362488 7.17462555 39.06112671 7.17805481 C36.98151111 7.18311879 34.90188738 7.1854633 32.82226562 7.18530273 C29.64439455 7.18748667 26.46687203 7.20564105 23.2890625 7.22460938 C21.26823035 7.22754392 19.24739656 7.22952831 17.2265625 7.23046875 C16.27746002 7.23765427 15.32835754 7.24483978 14.35049438 7.25224304 C8.89288584 7.23339519 4.44207346 7.18944517 0.1875 3.375 C-0.4003125 2.694375 -0.4003125 2.694375 -1 2 C-0.67 1.34 -0.34 0.68 0 0 Z " fill="#041CCE" transform="translate(322,359)"/>
<path d="M0 0 C-1.66463038 4.28642324 -4.79075837 7.08617217 -8 10.25 C-8.5465625 10.80429688 -9.093125 11.35859375 -9.65625 11.9296875 C-13.7466133 16 -13.7466133 16 -16 16 C-16 16.66 -16 17.32 -16 18 C-16.66 18 -17.32 18 -18 18 C-18 18.66 -18 19.32 -18 20 C-18.66 20 -19.32 20 -20 20 C-20 20.66 -20 21.32 -20 22 C-20.66 22 -21.32 22 -22 22 C-22 22.66 -22 23.32 -22 24 C-22.66 24 -23.32 24 -24 24 C-23.67 22.02 -23.34 20.04 -23 18 C-22.01 18.33 -21.02 18.66 -20 19 C-20.33 17.68 -20.66 16.36 -21 15 C-19.35 14.67 -17.7 14.34 -16 14 C-16 13.34 -16 12.68 -16 12 C-11.76285963 7.17436792 -11.76285963 7.17436792 -8.8125 6.5 C-8.214375 6.335 -7.61625 6.17 -7 6 C-5.84478498 3.52869082 -5.84478498 3.52869082 -5 1 C-3 0 -3 0 0 0 Z " fill="#465ABD" transform="translate(248,139)"/>
<path d="M0 0 C0.33 0.99 0.66 1.98 1 3 C-0.61594832 5.04119788 -2.2856382 7.04072937 -4 9 C-4.33 9.99 -4.66 10.98 -5 12 C-4.01 12.33 -3.02 12.66 -2 13 C-4.125 15.5625 -4.125 15.5625 -7 18 C-10.125 17.8125 -10.125 17.8125 -13 17 C-13.99 17 -14.98 17 -16 17 C-15.04882866 15.8274869 -14.08882991 14.66212985 -13.125 13.5 C-12.59132813 12.8503125 -12.05765625 12.200625 -11.5078125 11.53125 C-10.76144531 10.77328125 -10.76144531 10.77328125 -10 10 C-9.34 10 -8.68 10 -8 10 C-7.79375 9.46375 -7.5875 8.9275 -7.375 8.375 C-5.42003056 4.9982346 -2.81776305 2.69525161 0 0 Z " fill="#062BC5" transform="translate(273,180)"/>
<path d="M0 0 C0.66 0.33 1.32 0.66 2 1 C1.58682778 5.82034262 -0.38019915 7.90992611 -4 11 C-4.66 11 -5.32 11 -6 11 C-6 11.66 -6 12.32 -6 13 C-6.66 13 -7.32 13 -8 13 C-8 13.66 -8 14.32 -8 15 C-8.66 15 -9.32 15 -10 15 C-10 15.66 -10 16.32 -10 17 C-10.66 16.67 -11.32 16.34 -12 16 C-12.40729228 13.67843403 -12.74438677 11.3431213 -13 9 C-12.401875 8.855625 -11.80375 8.71125 -11.1875 8.5625 C-9.43849596 8.1127561 -7.71322977 7.57107659 -6 7 C-6 5.35 -6 3.7 -6 2 C-2.25 0.875 -2.25 0.875 0 2 C0 1.34 0 0.68 0 0 Z " fill="#1C31C5" transform="translate(223,159)"/>
<path d="M0 0 C1.98 0.99 3.96 1.98 6 3 C6 3.66 6 4.32 6 5 C6.99 4.67 7.98 4.34 9 4 C9.66 5.98 10.32 7.96 11 10 C11.99 10 12.98 10 14 10 C14 10.99 14 11.98 14 13 C14.66 13 15.32 13 16 13 C16 14.65 16 16.3 16 18 C16.639375 18.226875 17.27875 18.45375 17.9375 18.6875 C20 20 20 20 20.75 22.625 C20.8325 23.40875 20.915 24.1925 21 25 C17.60580737 21.71529745 14.38092265 18.29302848 11.1875 14.8125 C10.00220703 13.52279297 10.00220703 13.52279297 8.79296875 12.20703125 C7 10 7 10 7 8 C6.34 8 5.68 8 5 8 C0 2.52380952 0 2.52380952 0 0 Z " fill="#475CC6" transform="translate(276,311)"/>
<path d="M0 0 C0.33 0 0.66 0 1 0 C1.06058594 1.12019531 1.12117188 2.24039063 1.18359375 3.39453125 C1.26801424 4.86719984 1.35266149 6.33985544 1.4375 7.8125 C1.47681641 8.55048828 1.51613281 9.28847656 1.55664062 10.04882812 C1.74381035 13.23071342 1.98720793 15.96162378 3 19 C2.77975536 21.09232404 2.55272116 23.18418667 2.2890625 25.27148438 C1.60432568 31.73484472 1.58975801 38.264715 1.39453125 44.7578125 C1.35714844 45.87414062 1.31976563 46.99046875 1.28125 48.140625 C1.25095703 49.14641602 1.22066406 50.15220703 1.18945312 51.18847656 C1.00845332 53.87455105 0.59299673 56.37712983 0 59 C-0.33 59 -0.66 59 -1 59 C-1.06907442 45.59476564 -0.86591065 32.21244275 -0.5 18.8125 C-0.451596 16.97201116 -0.40341799 15.13151637 -0.35546875 13.29101562 C-0.23956845 8.86060448 -0.12066546 4.43028381 0 0 Z " fill="#0921AA" transform="translate(116,212)"/>
<path d="M0 0 C3 0 3 0 5.6875 2.3125 C8 5 8 5 8 8 C8.78375 8.0825 9.5675 8.165 10.375 8.25 C11.24125 8.4975 12.1075 8.745 13 9 C13.70151152 10.3153341 14.36525925 11.65117592 15 13 C15.86625 13.495 16.7325 13.99 17.625 14.5 C18.40875 14.995 19.1925 15.49 20 16 C20 17.32 20 18.64 20 20 C20.66 20.66 21.32 21.32 22 22 C22 22.66 22 23.32 22 24 C21.34 24 20.68 24 20 24 C15 18.52380952 15 18.52380952 15 16 C14.34 16 13.68 16 13 16 C13 15.34 13 14.68 13 14 C12.34 14 11.68 14 11 14 C9.4140625 12.390625 9.4140625 12.390625 7.625 10.25 C5.66242273 7.93096298 3.7411705 5.74780716 1.5625 3.625 C0 2 0 2 0 0 Z " fill="#526AC5" transform="translate(220,247)"/>
<path d="M0 0 C4.38239078 3.53962332 8.2004719 7.1912706 11.73828125 11.58203125 C12.96479293 13.1369442 12.96479293 13.1369442 15 14 C15 14.66 15 15.32 15 16 C15.66 16 16.32 16 17 16 C17 16.66 17 17.32 17 18 C17.66 18 18.32 18 19 18 C19 18.66 19 19.32 19 20 C16.75 20.75 16.75 20.75 14 21 C10.36225359 18.32518646 8.98091537 14.96183073 7 11 C5.48562415 8.89979981 3.91328237 6.8607815 2.3046875 4.83203125 C1 3 1 3 0 0 Z " fill="#546BD1" transform="translate(209,250)"/>
<path d="M0 0 C0.66 0.33 1.32 0.66 2 1 C0.49901406 4.11743233 -1.02431822 7.15501823 -3 10 C-3.99 10 -4.98 10 -6 10 C-6.268125 10.598125 -6.53625 11.19625 -6.8125 11.8125 C-9.04884673 15.93208607 -12.03662736 17.64084962 -16 20 C-17.68477344 21.31037934 -19.35648543 22.63823078 -21 24 C-19.66107286 21.0103129 -18.19457518 18.96346478 -15.84765625 16.6875 C-15.23599609 16.08679688 -14.62433594 15.48609375 -13.99414062 14.8671875 C-13.35669922 14.25101562 -12.71925781 13.63484375 -12.0625 13 C-7.36502884 8.512177 -7.36502884 8.512177 -3.18359375 3.5625 C-2.79300781 3.046875 -2.40242188 2.53125 -2 2 C-1.34 2 -0.68 2 0 2 C0 1.34 0 0.68 0 0 Z " fill="#7A8DD2" transform="translate(205,250)"/>
<path d="M0 0 C0.99 0.33 1.98 0.66 3 1 C3 1.66 3 2.32 3 3 C1.63671875 4.33984375 1.63671875 4.33984375 -0.3125 5.9375 C-4.58598232 9.55234526 -8.5018506 13.43947076 -12.40551758 17.44311523 C-13.58665991 18.64569848 -14.79121495 19.82520539 -16 21 C-16.33 21 -16.66 21 -17 21 C-17 19.35 -17 17.7 -17 16 C-16.34 16 -15.68 16 -15 16 C-15 15.34 -15 14.68 -15 14 C-13.35 13.67 -11.7 13.34 -10 13 C-10 11.35 -10 9.7 -10 8 C-8.68 8 -7.36 8 -6 8 C-6 7.34 -6 6.68 -6 6 C-5.01 6 -4.02 6 -3 6 C-3 4.68 -3 3.36 -3 2 C-2.01 2 -1.02 2 0 2 C0 1.34 0 0.68 0 0 Z " fill="#5463C0" transform="translate(208,175)"/>
<path d="M0 0 C20.13 0 40.26 0 61 0 C60.67 1.65 60.34 3.3 60 5 C59.34 5.33 58.68 5.66 58 6 C58 4.68 58 3.36 58 2 C38.86 1.67 19.72 1.34 0 1 C0 0.67 0 0.34 0 0 Z " fill="#0321AE" transform="translate(182,140)"/>
<path d="M0 0 C2.04119788 1.61594832 4.04072937 3.2856382 6 5 C6 5.66 6 6.32 6 7 C6.66 7 7.32 7 8 7 C9.7265625 8.8984375 9.7265625 8.8984375 11.625 11.375 C12.25664062 12.18710937 12.88828125 12.99921875 13.5390625 13.8359375 C15 16 15 16 15 18 C15.66 18 16.32 18 17 18 C17 18.66 17 19.32 17 20 C17.66 20 18.32 20 19 20 C20.38938077 21.96147874 21.7260411 23.96166576 23 26 C17.98972451 24.78538776 15.6736026 21.60643511 12.55078125 17.77734375 C11.10661042 15.89500097 11.10661042 15.89500097 9 15 C9 13.68 9 12.36 9 11 C8.401875 10.773125 7.80375 10.54625 7.1875 10.3125 C3.36282569 8.01769541 1.88498937 3.91497793 0 0 Z " fill="#697AC7" transform="translate(332,297)"/>
<path d="M0 0 C0.33 0.66 0.66 1.32 1 2 C-0.90183397 5.83568535 -3.38174896 8.59950363 -6.4375 11.5625 C-7.19933594 12.30628906 -7.96117187 13.05007812 -8.74609375 13.81640625 C-9.86177734 14.89728516 -9.86177734 14.89728516 -11 16 C-12.06154297 17.08861328 -12.06154297 17.08861328 -13.14453125 18.19921875 C-15.001959 20.00190126 -16.63502582 20.98643964 -19 22 C-17.56387103 18.74995696 -15.78685707 16.49045394 -13.33984375 13.92578125 C-12.62892578 13.17619141 -11.91800781 12.42660156 -11.18554688 11.65429688 C-10.44369141 10.88150391 -9.70183594 10.10871094 -8.9375 9.3125 C-8.19177734 8.52810547 -7.44605469 7.74371094 -6.67773438 6.93554688 C-1.60895647 1.60895647 -1.60895647 1.60895647 0 0 Z " fill="#5E77C4" transform="translate(256,198)"/>
<path d="M0 0 C4.69507006 3.75605605 8.82051473 7.82596357 12.875 12.25 C13.36331299 12.78141602 13.85162598 13.31283203 14.35473633 13.86035156 C17.86718137 17.73436274 17.86718137 17.73436274 19 20 C16.21788056 19.62403791 14.4120716 19.32681541 12.1875 17.5625 C11 16 11 16 11 14 C10.01 13.67 9.02 13.34 8 13 C3 7.53488372 3 7.53488372 3 5 C2.01 4.67 1.02 4.34 0 4 C0 2.68 0 1.36 0 0 Z " fill="#5F87D0" transform="translate(127,162)"/>
<path d="M0 0 C1.7074998 1.28062485 3.37373596 2.61767557 5 4 C5 4.66 5 5.32 5 6 C5.66 6 6.32 6 7 6 C7 6.66 7 7.32 7 8 C7.66 8 8.32 8 9 8 C10.48046875 9.50390625 10.48046875 9.50390625 12.1875 11.5625 C15.60201725 15.58675247 19.21845349 19.32190005 23 23 C22.67 23.66 22.34 24.32 22 25 C21.2575 24.401875 20.515 23.80375 19.75 23.1875 C17.15045409 21.06196177 17.15045409 21.06196177 14.875 19.5625 C13 18 13 18 11.75 15.75 C10.00306602 13.00481803 8.43264186 11.59907525 5.9375 9.5625 C2.49756743 6.68431789 0.88327195 4.52676875 0 0 Z " fill="#899AD4" transform="translate(146,182)"/>
<path d="M0 0 C1.32 0.66 2.64 1.32 4 2 C2.63055898 4.94956528 1.12169591 7.52468811 -1 10 C-1.66 10 -2.32 10 -3 10 C-3.226875 10.53625 -3.45375 11.0725 -3.6875 11.625 C-5.43382056 14.78500863 -7.6402849 17.2676983 -10 20 C-10.33 18.68 -10.66 17.36 -11 16 C-10.01 15.67 -9.02 15.34 -8 15 C-7.67 13.35 -7.34 11.7 -7 10 C-6.34 10 -5.68 10 -5 10 C-5 9.34 -5 8.68 -5 8 C-4.34 7.67 -3.68 7.34 -3 7 C-2.34786708 4.97536745 -2.34786708 4.97536745 -2 3 C-1.34 3 -0.68 3 0 3 C0 2.01 0 1.02 0 0 Z " fill="#4A5FC8" transform="translate(341,177)"/>
<path d="M0 0 C1.4606285 2.64738916 2 3.89448334 2 7 C3.32 7 4.64 7 6 7 C6.28875 8.2375 6.5775 9.475 6.875 10.75 C7.61334794 13.72448742 8.44474933 16.333856 10 19 C7.03595495 16.19195732 4.55500981 13.81684226 3 10 C2.34 10 1.68 10 1 10 C1 9.34 1 8.68 1 8 C0.34 8 -0.32 8 -1 8 C-2.38938077 6.03852126 -3.7260411 4.03833424 -5 2 C-4.01 1.67 -3.02 1.34 -2 1 C-1.34 0.67 -0.68 0.34 0 0 Z " fill="#5970CF" transform="translate(247,270)"/>
<path d="M0 0 C1.65 1.32 3.3 2.64 5 4 C4.83566075 9.72996169 0.82273925 12.62475092 -3.0625 16.3125 C-3.72572266 16.95767578 -4.38894531 17.60285156 -5.07226562 18.26757812 C-6.70617671 19.85447018 -8.34868147 21.43126328 -10 23 C-10.66 22.67 -11.32 22.34 -12 22 C-11.30132812 21.33613281 -10.60265625 20.67226562 -9.8828125 19.98828125 C-8.97273437 19.10527344 -8.06265625 18.22226563 -7.125 17.3125 C-5.76761719 16.00732422 -5.76761719 16.00732422 -4.3828125 14.67578125 C-0.15883852 9.9324662 0.24506661 6.24919844 0 0 Z " fill="#7A84CF" transform="translate(169,207)"/>
<path d="M0 0 C1.03688965 0.01047363 2.0737793 0.02094727 3.14208984 0.03173828 C4.26357422 0.03818359 5.38505859 0.04462891 6.54052734 0.05126953 C7.71615234 0.06802734 8.89177734 0.08478516 10.10302734 0.10205078 C11.87806641 0.11558594 11.87806641 0.11558594 13.68896484 0.12939453 C16.61885257 0.15302266 19.54834075 0.18596564 22.47802734 0.22705078 C22.47802734 0.55705078 22.47802734 0.88705078 22.47802734 1.22705078 C11.58802734 1.72205078 11.58802734 1.72205078 0.47802734 2.22705078 C1.46802734 3.54705078 2.45802734 4.86705078 3.47802734 6.22705078 C3.14802734 7.54705078 2.81802734 8.86705078 2.47802734 10.22705078 C0.16802734 7.58705078 -2.14197266 4.94705078 -4.52197266 2.22705078 C-2.52197266 0.22705078 -2.52197266 0.22705078 0 0 Z " fill="#86BAE0" transform="translate(120.52197265625,137.77294921875)"/>
<path d="M0 0 C1.7074998 1.28062485 3.37373596 2.61767557 5 4 C5 4.66 5 5.32 5 6 C5.66 6 6.32 6 7 6 C7 6.99 7 7.98 7 9 C7.66 9 8.32 9 9 9 C9 9.66 9 10.32 9 11 C9.99 11 10.98 11 12 11 C12 12.65 12 14.3 12 16 C11.34 16 10.68 16 10 16 C10 15.34 10 14.68 10 14 C9.34 14 8.68 14 8 14 C8 13.34 8 12.68 8 12 C7.34 12 6.68 12 6 12 C4.52734375 10.609375 4.52734375 10.609375 2.9375 8.75 C2.41027344 8.14671875 1.88304687 7.5434375 1.33984375 6.921875 C-0.06515378 4.90654326 -0.6633268 3.424047 -1 1 C-0.67 0.67 -0.34 0.34 0 0 Z " fill="#3C5CC3" transform="translate(152,173)"/>
<path d="M0 0 C0.99 0.33 1.98 0.66 3 1 C3 1.66 3 2.32 3 3 C3.66 3 4.32 3 5 3 C6.625 5.5 6.625 5.5 8 8 C5.03824877 7.38722388 3.61941217 6.74627478 1 5 C1 14.24 1 23.48 1 33 C0.67 33 0.34 33 0 33 C0 22.11 0 11.22 0 0 Z " fill="#306DAF" transform="translate(115,150)"/>
<path d="M0 0 C0.99 0 1.98 0 3 0 C4.6875 2.5 4.6875 2.5 6 5 C-6.33333333 5 -18.66666667 5 -31 5 C-31 4.67 -31 4.34 -31 4 C-20.77 4 -10.54 4 0 4 C0 2.68 0 1.36 0 0 Z " fill="#2439BF" transform="translate(237,362)"/>
<path d="M0 0 C0.33 0.66 0.66 1.32 1 2 C-0.17476301 5.33461375 -1.78086825 8.24892141 -4 11 C-7.8125 12.0625 -7.8125 12.0625 -11 12 C-11.33 13.32 -11.66 14.64 -12 16 C-12.66 15.67 -13.32 15.34 -14 15 C-11.49411765 10.23882353 -11.49411765 10.23882353 -9.125 9.09375 C-6.51875888 7.75230236 -5.12709063 6.1130696 -3.25 3.875 C-2.63640625 3.15054688 -2.0228125 2.42609375 -1.390625 1.6796875 C-0.70226562 0.84824219 -0.70226562 0.84824219 0 0 Z " fill="#052AD2" transform="translate(250,208)"/>
<path d="M0 0 C0.66 0 1.32 0 2 0 C4.6875 2.75 4.6875 2.75 7 6 C6.8125 8.375 6.8125 8.375 6 10 C4.68 10 3.36 10 2 10 C-1.06666667 5.4 -1.06666667 5.4 -0.5625 2.375 C-0.376875 1.59125 -0.19125 0.8075 0 0 Z " fill="#0A26C1" transform="translate(207,250)"/>
<path d="M0 0 C3.53600465 1.91135386 5.78972846 3.62642766 8 7 C7.67 7.66 7.34 8.32 7 9 C6.01 9.33 5.02 9.66 4 10 C3.67 9.34 3.34 8.68 3 8 C2.01 8 1.02 8 0 8 C-0.66 6.02 -1.32 4.04 -2 2 C-1.34 1.34 -0.68 0.68 0 0 Z " fill="#051BC3" transform="translate(162,202)"/>
<path d="M0 0 C0.66 0 1.32 0 2 0 C3.69140625 1.828125 3.69140625 1.828125 5.5625 4.25 C6.18253906 5.03890625 6.80257812 5.8278125 7.44140625 6.640625 C8.90172158 8.85122766 9.56718926 10.41499341 10 13 C9.34 13 8.68 13 8 13 C8 12.34 8 11.68 8 11 C7.34 11 6.68 11 6 11 C6 10.34 6 9.68 6 9 C4.68 9.33 3.36 9.66 2 10 C2 8.68 2 7.36 2 6 C1.34 6 0.68 6 0 6 C0 4.02 0 2.04 0 0 Z " fill="#0450E9" transform="translate(128,167)"/>
<path d="M0 0 C1.98 0.99 1.98 0.99 4 2 C4 2.66 4 3.32 4 4 C5.62053812 5.38903267 7.29705213 6.71332828 9 8 C10.70294787 9.28667172 12.37946188 10.61096733 14 12 C14 12.66 14 13.32 14 14 C14.66 14.33 15.32 14.66 16 15 C11.61537866 14.49890042 9.1999003 13.01704885 6 10 C6 9.34 6 8.68 6 8 C5.34 8 4.68 8 4 8 C3.34 6.35 2.68 4.7 2 3 C1.34 3 0.68 3 0 3 C0 2.01 0 1.02 0 0 Z " fill="#6474C2" transform="translate(311,352)"/>
<path d="M0 0 C0.33 1.32 0.66 2.64 1 4 C0.34 4 -0.32 4 -1 4 C-1.226875 4.53625 -1.45375 5.0725 -1.6875 5.625 C-3.43382056 8.78500863 -5.6402849 11.2676983 -8 14 C-9.32 13.67 -10.64 13.34 -12 13 C-8.04 8.71 -4.08 4.42 0 0 Z " fill="#5D75C5" transform="translate(286,166)"/>
<path d="M0 0 C6.625 -0.125 6.625 -0.125 10 1 C9.375 3.375 9.375 3.375 8 6 C4.875 7.3125 4.875 7.3125 2 8 C2 7.01 2 6.02 2 5 C1.01 5.33 0.02 5.66 -1 6 C-1.33 5.01 -1.66 4.02 -2 3 C1.465 2.505 1.465 2.505 5 2 C3.35 1.67 1.7 1.34 0 1 C0 0.67 0 0.34 0 0 Z " fill="#0822C2" transform="translate(369,138)"/>
<path d="M0 0 C0.99 0.495 0.99 0.495 2 1 C2 1.66 2 2.32 2 3 C2.66 3 3.32 3 4 3 C5.60178593 4.78104718 7.13381926 6.62537278 8.625 8.5 C9.44226563 9.5209375 10.25953125 10.541875 11.1015625 11.59375 C11.72804688 12.3878125 12.35453125 13.181875 13 14 C11.68 14.33 10.36 14.66 9 15 C9 14.01 9 13.02 9 12 C8.443125 11.79375 7.88625 11.5875 7.3125 11.375 C4.06346451 9.44314106 2.1961454 7.05020195 0 4 C0 2.68 0 1.36 0 0 Z " fill="#7180C8" transform="translate(379,351)"/>
<path d="M0 0 C1.7074998 1.28062485 3.37373596 2.61767557 5 4 C5 4.66 5 5.32 5 6 C5.66 6 6.32 6 7 6 C8.5078125 7.53125 8.5078125 7.53125 10.125 9.5 C10.66382813 10.1496875 11.20265625 10.799375 11.7578125 11.46875 C12.37269531 12.22671875 12.37269531 12.22671875 13 13 C12.67 13.66 12.34 14.32 12 15 C11.401875 14.34 10.80375 13.68 10.1875 13 C8.12498166 10.6626154 8.12498166 10.6626154 5 11 C4.67 9.35 4.34 7.7 4 6 C3.01 6 2.02 6 1 6 C0.67 4.02 0.34 2.04 0 0 Z " fill="#6475CB" transform="translate(357,326)"/>
<path d="M0 0 C0.66 0 1.32 0 2 0 C2 1.32 2 2.64 2 4 C1.34 4 0.68 4 0 4 C0 4.66 0 5.32 0 6 C-0.66 6 -1.32 6 -2 6 C-2 6.66 -2 7.32 -2 8 C-2.66 8 -3.32 8 -4 8 C-4 8.66 -4 9.32 -4 10 C-4.66 10 -5.32 10 -6 10 C-6 10.66 -6 11.32 -6 12 C-6.66 12 -7.32 12 -8 12 C-7.67 10.02 -7.34 8.04 -7 6 C-6.01 6.33 -5.02 6.66 -4 7 C-4.33 5.68 -4.66 4.36 -5 3 C-3.35 2.67 -1.7 2.34 0 2 C0 1.34 0 0.68 0 0 Z " fill="#4657BD" transform="translate(232,151)"/>
<path d="M0 0 C1.98 0.99 1.98 0.99 4 2 C4 2.66 4 3.32 4 4 C4.66 4 5.32 4 6 4 C9.07692308 9.41538462 9.07692308 9.41538462 8.6875 12.375 C8.460625 12.91125 8.23375 13.4475 8 14 C8 13.34 8 12.68 8 12 C7.01 11.67 6.02 11.34 5 11 C3.15500602 9.12382302 1.6316401 7.07262391 0 5 C0.66 4.34 1.32 3.68 2 3 C1.34 2.01 0.68 1.02 0 0 Z " fill="#3247C2" transform="translate(228,270)"/>
<path d="M0 0 C1.9375 0.75 1.9375 0.75 4 2 C4.33 3.32 4.66 4.64 5 6 C-0.94 6 -6.88 6 -13 6 C-9.57905758 3.71937172 -8.31812778 3.78074993 -4.3125 3.875 C-2.82169922 3.90207031 -2.82169922 3.90207031 -1.30078125 3.9296875 C-0.54152344 3.95289063 0.21773438 3.97609375 1 4 C0.67 2.68 0.34 1.36 0 0 Z " fill="#071EBF" transform="translate(384,361)"/>
<path d="M0 0 C0.99 0.33 1.98 0.66 3 1 C3 2.98 3 4.96 3 7 C2.34 7 1.68 7 1 7 C1 7.66 1 8.32 1 9 C-1.375 11.625 -1.375 11.625 -4 14 C-4.66 14 -5.32 14 -6 14 C-6 12.02 -6 10.04 -6 8 C-3.35261084 6.5393715 -2.10551666 6 1 6 C0.67 4.02 0.34 2.04 0 0 Z " fill="#2D3BB5" transform="translate(154,225)"/>
<path d="M0 0 C0.33 0.99 0.66 1.98 1 3 C-2.63 6.63 -6.26 10.26 -10 14 C-11 10 -11 10 -10 8 C-9.01 8.33 -8.02 8.66 -7 9 C-6.34 7.02 -5.68 5.04 -5 3 C-3.68 3 -2.36 3 -1 3 C-0.67 2.01 -0.34 1.02 0 0 Z " fill="#0819A8" transform="translate(167,216)"/>
<path d="M0 0 C0 3.48655951 -0.4336095 3.84287187 -2.6875 6.3125 C-4.76146995 8.61094669 -6.73119444 10.9266221 -8.625 13.375 C-10.88289921 15.87057281 -11.71605327 16.75674469 -15 17 C-15 16.34 -15 15.68 -15 15 C-14.34 15 -13.68 15 -13 15 C-13 14.34 -13 13.68 -13 13 C-12.34 13 -11.68 13 -11 13 C-11 12.34 -11 11.68 -11 11 C-10.34 11 -9.68 11 -9 11 C-8.74476563 10.41734375 -8.48953125 9.8346875 -8.2265625 9.234375 C-6.88258913 6.78611777 -5.38189704 5.18256752 -3.375 3.25 C-2.74335938 2.63640625 -2.11171875 2.0228125 -1.4609375 1.390625 C-0.73777344 0.70226562 -0.73777344 0.70226562 0 0 Z " fill="#8496D8" transform="translate(302,149)"/>
<path d="M0 0 C0.99 0.33 1.98 0.66 3 1 C1.625 3 1.625 3 0 5 C-0.66 5 -1.32 5 -2 5 C-2.2475 5.61875 -2.495 6.2375 -2.75 6.875 C-4.20628639 9.35068687 -5.37812506 9.95125002 -8 11 C-8 10.01 -8 9.02 -8 8 C-7.34 8 -6.68 8 -6 8 C-6 6.68 -6 5.36 -6 4 C-5.01 3.67 -4.02 3.34 -3 3 C-1.33289654 1.50014391 -1.33289654 1.50014391 0 0 Z " fill="#586EC9" transform="translate(297,232)"/>
<path d="M0 0 C-1.98 0.33 -3.96 0.66 -6 1 C-6 1.66 -6 2.32 -6 3 C-7.8125 5.125 -7.8125 5.125 -10 7 C-10.99 7 -11.98 7 -13 7 C-13 7.66 -13 8.32 -13 9 C-14.32 8.67 -15.64 8.34 -17 8 C-5.98938279 -2.21828992 -5.98938279 -2.21828992 0 0 Z " fill="#576DC4" transform="translate(320,140)"/>
<path d="M0 0 C1.32 0.33 2.64 0.66 4 1 C4 3 4 3 2.28515625 4.7265625 C1.55167969 5.35304687 0.81820312 5.97953125 0.0625 6.625 C-0.66839844 7.25664062 -1.39929688 7.88828125 -2.15234375 8.5390625 C-4 10 -4 10 -5 10 C-5.20086443 6.28400809 -5.1519437 5.22791555 -3 2 C-2.01 2 -1.02 2 0 2 C0 1.34 0 0.68 0 0 Z " fill="#4554BF" transform="translate(140,242)"/>
<path d="M0 0 C2.31 0 4.62 0 7 0 C6.06409496 1.1055189 5.12620142 2.20935453 4.1875 3.3125 C3.40439453 4.23482422 3.40439453 4.23482422 2.60546875 5.17578125 C1.12827531 6.85424679 -0.40039131 8.43882034 -2 10 C-2.99 9.67 -3.98 9.34 -5 9 C-4.01 8.34 -3.02 7.68 -2 7 C-0.7811879 3.44327821 -0.7811879 3.44327821 0 0 Z " fill="#5D69CB" transform="translate(184,196)"/>
<path d="M0 0 C0.33 0 0.66 0 1 0 C1.4375 2.0625 1.4375 2.0625 1 5 C-1.09492908 7.5998607 -3.43453518 9.86518875 -6 12 C-6.33 12 -6.66 12 -7 12 C-7 10.35 -7 8.7 -7 7 C-6.34 6.67 -5.68 6.34 -5 6 C-4.67 5.01 -4.34 4.02 -4 3 C-3.01 3.33 -2.02 3.66 -1 4 C-0.67 2.68 -0.34 1.36 0 0 Z " fill="#2834B3" transform="translate(134,248)"/>
<path d="M0 0 C0.99 0.33 1.98 0.66 3 1 C2.01 3.31 1.02 5.62 0 8 C-1.32 8 -2.64 8 -4 8 C-4 7.01 -4 6.02 -4 5 C-4.66 4.67 -5.32 4.34 -6 4 C-5.38125 3.71125 -4.7625 3.4225 -4.125 3.125 C-1.86674235 2.06279958 -1.86674235 2.06279958 0 0 Z " fill="#263FCD" transform="translate(329,191)"/>
<path d="M0 0 C0.66 0 1.32 0 2 0 C3 1.66666667 4 3.33333333 5 5 C5.9075 5.845625 6.815 6.69125 7.75 7.5625 C8.86375 8.7690625 8.86375 8.7690625 10 10 C9.640625 12.15234375 9.640625 12.15234375 9 14 C7.99406757 12.8803014 6.9954151 11.7540588 6 10.625 C5.1646875 9.68527344 5.1646875 9.68527344 4.3125 8.7265625 C3 7 3 7 3 5 C2.34 5 1.68 5 1 5 C0.34 3.68 -0.32 2.36 -1 1 C-0.67 0.67 -0.34 0.34 0 0 Z " fill="#4F62BC" transform="translate(258,288)"/>
<path d="M0 0 C2.86724686 0.57344937 3.8614515 0.8614515 6 3 C5.67 3.99 5.34 4.98 5 6 C4.67 5.67 4.34 5.34 4 5 C4 5.99 4 6.98 4 8 C3.34 8 2.68 8 2 8 C1.67 8.66 1.34 9.32 1 10 C-0.83691257 6.21812119 -1.15837626 4.05431692 0 0 Z " fill="#0625CC" transform="translate(225,270)"/>
<path d="M0 0 C2 1.375 2 1.375 4 3 C4 3.66 4 4.32 4 5 C4.66 5 5.32 5 6 5 C7.5078125 6.53125 7.5078125 6.53125 9.125 8.5 C9.66382813 9.1496875 10.20265625 9.799375 10.7578125 10.46875 C11.37269531 11.22671875 11.37269531 11.22671875 12 12 C11.67 12.66 11.34 13.32 11 14 C9.15396505 12.42967157 7.3240653 10.84549692 5.5 9.25 C4.97535156 8.8065625 4.45070313 8.363125 3.91015625 7.90625 C2.40625 6.578125 2.40625 6.578125 0 4 C0 2.68 0 1.36 0 0 Z " fill="#7F91D1" transform="translate(308,269)"/>
<path d="M0 0 C4 2 8 4 12 6 C11.34 7.32 10.68 8.64 10 10 C9.01 10 8.02 10 7 10 C5.5625 7.8125 5.5625 7.8125 4 5 C2.68962066 3.31522656 1.36176922 1.64351457 0 0 Z " fill="#1421A7" transform="translate(171,195)"/>
<path d="M0 0 C0.7425 0.185625 1.485 0.37125 2.25 0.5625 C4.94990963 0.99203108 6.44631077 0.85122974 9 0 C9 0.66 9 1.32 9 2 C8.34 2 7.68 2 7 2 C7 2.66 7 3.32 7 4 C6.34 4 5.68 4 5 4 C5 4.66 5 5.32 5 6 C4.34 6 3.68 6 3 6 C3 6.66 3 7.32 3 8 C2.34 7.67 1.68 7.34 1 7 C0.59270772 4.67843403 0.25561323 2.3431213 0 0 Z " fill="#3D4FC0" transform="translate(210,168)"/>
<path d="M0 0 C1.32 0.33 2.64 0.66 4 1 C4 1.66 4 2.32 4 3 C4.66 3 5.32 3 6 3 C9 8.625 9 8.625 9 12 C7.82737096 10.88121617 6.66204862 9.75476949 5.5 8.625 C4.8503125 7.99851563 4.200625 7.37203125 3.53125 6.7265625 C2 5 2 5 2 3 C1.34 3 0.68 3 0 3 C0 2.01 0 1.02 0 0 Z " fill="#1350CE" transform="translate(132,153)"/>
<path d="M0 0 C0.99 0.33 1.98 0.66 3 1 C0.53846154 7.64615385 0.53846154 7.64615385 -2.1875 9.4375 C-3.0846875 9.7159375 -3.0846875 9.7159375 -4 10 C-5.125 6.25 -5.125 6.25 -4 4 C-3.34 4 -2.68 4 -2 4 C-2 3.34 -2 2.68 -2 2 C-1.34 2 -0.68 2 0 2 C0 1.34 0 0.68 0 0 Z " fill="#415BCA" transform="translate(235,220)"/>
<path d="M0 0 C0.99 0 1.98 0 3 0 C3 0.66 3 1.32 3 2 C4.32 2 5.64 2 7 2 C7.33 3.65 7.66 5.3 8 7 C5.69 7.33 3.38 7.66 1 8 C1.020625 7.05125 1.04125 6.1025 1.0625 5.125 C1.22551826 2.09333717 1.22551826 2.09333717 0 0 Z " fill="#0A60EF" transform="translate(120,160)"/>
<path d="M0 0 C0.99 0.33 1.98 0.66 3 1 C3 1.99 3 2.98 3 4 C3.99 4 4.98 4 6 4 C6 5.65 6 7.3 6 9 C6.66 9.33 7.32 9.66 8 10 C7.01 10 6.02 10 5 10 C5 9.34 5 8.68 5 8 C4.34 8 3.68 8 3 8 C3 7.34 3 6.68 3 6 C2.34 6 1.68 6 1 6 C-0.0625 4.125 -0.0625 4.125 -1 2 C-0.67 1.34 -0.34 0.68 0 0 Z " fill="#485EC2" transform="translate(269,300)"/>
<path d="M0 0 C3.44428265 1.44781793 5.36130962 3.27694609 7.75 6.125 C8.36359375 6.84945313 8.9771875 7.57390625 9.609375 8.3203125 C10.29773438 9.15175781 10.29773438 9.15175781 11 10 C10.67 10.66 10.34 11.32 10 12 C8.33333333 10.66666667 6.66666667 9.33333333 5 8 C3.6078125 7.01 3.6078125 7.01 2.1875 6 C1.465625 5.34 0.74375 4.68 0 4 C0 2.68 0 1.36 0 0 Z " fill="#748DD2" transform="translate(321,285)"/>
<path d="M0 0 C1.98 1.32 3.96 2.64 6 4 C5.67 4.99 5.34 5.98 5 7 C2.36 7.33 -0.28 7.66 -3 8 C-2.67 7.34 -2.34 6.68 -2 6 C-1.34 6 -0.68 6 0 6 C0 4.02 0 2.04 0 0 Z " fill="#102EC4" transform="translate(316,280)"/>
<path d="M0 0 C4.08889201 2.22222392 5.7411657 3.29408826 7.375 7.75 C7.58125 8.8225 7.7875 9.895 8 11 C7.01 11 6.02 11 5 11 C4.16151196 9.54462432 3.32936066 8.08559627 2.5 6.625 C1.80390625 5.40683594 1.80390625 5.40683594 1.09375 4.1640625 C0 2 0 2 0 0 Z " fill="#1936C0" transform="translate(302,264)"/>
<path d="M0 0 C1.7074998 1.28062485 3.37373596 2.61767557 5 4 C5 4.66 5 5.32 5 6 C5.66 6 6.32 6 7 6 C7 6.66 7 7.32 7 8 C7.66 8 8.32 8 9 8 C8.67 9.32 8.34 10.64 8 12 C3.8157229 8.17957309 1.35005631 5.67023649 0 0 Z " fill="#6D87C8" transform="translate(146,182)"/>
<path d="M0 0 C1.65 0 3.3 0 5 0 C5 0.66 5 1.32 5 2 C4.34 2 3.68 2 3 2 C2.7525 2.598125 2.505 3.19625 2.25 3.8125 C0.83629988 6.28647521 -0.65055383 7.43370255 -3 9 C-2.67 7.02 -2.34 5.04 -2 3 C-1.34 3 -0.68 3 0 3 C0 2.01 0 1.02 0 0 Z " fill="#576AC5" transform="translate(348,170)"/>
<path d="M0 0 C1.7074998 1.28062485 3.37373596 2.61767557 5 4 C5 4.66 5 5.32 5 6 C5.66 6 6.32 6 7 6 C7.66 7.32 8.32 8.64 9 10 C5.63602917 9.39929092 3.43285133 8.43285133 1 6 C0.25 2.8125 0.25 2.8125 0 0 Z " fill="#5A6DBF" transform="translate(370,341)"/>
<path d="M0 0 C0.99 0.33 1.98 0.66 3 1 C1.71937515 2.7074998 0.38232443 4.37373596 -1 6 C-1.66 6 -2.32 6 -3 6 C-3 6.66 -3 7.32 -3 8 C-4.32 7.67 -5.64 7.34 -7 7 C-4.69 4.69 -2.38 2.38 0 0 Z " fill="#5065BD" transform="translate(229,227)"/>
<path d="M0 0 C2.31 0 4.62 0 7 0 C6.34 1.65 5.68 3.3 5 5 C5.99 5 6.98 5 8 5 C7.67 5.99 7.34 6.98 7 8 C3.70851757 6.86500606 3.0040131 6.00716624 1.25 2.875 C0.8375 1.92625 0.425 0.9775 0 0 Z " fill="#0540DF" transform="translate(139,160)"/>
<path d="M0 0 C1.875 0.1875 1.875 0.1875 4 1 C5.125 3.3125 5.125 3.3125 6 6 C6.65213539 7.34050052 7.31379969 8.67661368 8 10 C6.02 9.34 4.04 8.68 2 8 C1.855625 7.236875 1.71125 6.47375 1.5625 5.6875 C1.0367406 2.91827092 1.0367406 2.91827092 0 0 Z " fill="#071FC7" transform="translate(375,350)"/>
<path d="M0 0 C0.99 0 1.98 0 3 0 C5.25 2.8125 5.25 2.8125 7 6 C6.67 6.99 6.34 7.98 6 9 C0.42857143 3.85714286 0.42857143 3.85714286 0 0 Z " fill="#4A5CBE" transform="translate(305,344)"/>
<path d="M0 0 C1.32 0 2.64 0 4 0 C2.33248852 3.94139078 -0.22710649 6.7892812 -3 10 C-3.33 8.68 -3.66 7.36 -4 6 C-3.01 5.67 -2.02 5.34 -1 5 C-0.67 3.35 -0.34 1.7 0 0 Z " fill="#5B6DC1" transform="translate(334,187)"/>
<path d="M0 0 C5.78461538 4.18461538 5.78461538 4.18461538 6.875 8.3125 C6.936875 9.6428125 6.936875 9.6428125 7 11 C6.01 11 5.02 11 4 11 C3.52014033 9.72942818 3.0411407 8.45853152 2.5625 7.1875 C2.16224609 6.12595703 2.16224609 6.12595703 1.75390625 5.04296875 C1.13774814 3.37327604 0.56280765 1.68842296 0 0 Z " fill="#0F25B4" transform="translate(364,336)"/>
<path d="M0 0 C2.97 1.65 5.94 3.3 9 5 C8.67 5.66 8.34 6.32 8 7 C5.03 6.505 5.03 6.505 2 6 C1.34 4.02 0.68 2.04 0 0 Z " fill="#1E38BD" transform="translate(348,319)"/>
<path d="M0 0 C0.144375 0.598125 0.28875 1.19625 0.4375 1.8125 C0.8872439 3.56150404 1.42892341 5.28677023 2 7 C2.66 7 3.32 7 4 7 C4 7.66 4 8.32 4 9 C4.66 9 5.32 9 6 9 C5.67 9.66 5.34 10.32 5 11 C1.83884224 9.63016497 1.0072908 9.0109362 -1 6 C-1.75 3.9375 -1.75 3.9375 -2 2 C-1.34 1.34 -0.68 0.68 0 0 Z " fill="#869CD9" transform="translate(289,243)"/>
<path d="M0 0 C0.33 0.99 0.66 1.98 1 3 C-1.80804268 5.96404505 -4.18315774 8.44499019 -8 10 C-6.34908222 5.70761377 -3.26245434 3.1206085 0 0 Z " fill="#677ECA" transform="translate(245,210)"/>
<path d="M0 0 C1.32 0 2.64 0 4 0 C4 0.66 4 1.32 4 2 C4.99 2 5.98 2 7 2 C7 3.65 7 5.3 7 7 C6.34 7 5.68 7 5 7 C5 6.34 5 5.68 5 5 C4.34 5 3.68 5 3 5 C3 4.34 3 3.68 3 3 C2.34 3 1.68 3 1 3 C0.67 2.01 0.34 1.02 0 0 Z " fill="#586AC4" transform="translate(157,182)"/>
<path d="M0 0 C0.99 0.33 1.98 0.66 3 1 C3 1.66 3 2.32 3 3 C3.66 3 4.32 3 5 3 C6.625 5.5 6.625 5.5 8 8 C4.65902615 7.40339753 2.45699871 6.36924875 0 4 C0 2.68 0 1.36 0 0 Z " fill="#6EA1D0" transform="translate(115,150)"/>
<path d="M0 0 C2.31 0.66 4.62 1.32 7 2 C7.33 3.98 7.66 5.96 8 8 C6.85073734 7.04578192 5.70569459 6.08647955 4.5625 5.125 C3.92441406 4.59132812 3.28632812 4.05765625 2.62890625 3.5078125 C1 2 1 2 0 0 Z " fill="#4C84DB" transform="translate(124,148)"/>
<path d="M0 0 C2.04119788 1.61594832 4.04072937 3.2856382 6 5 C6 5.66 6 6.32 6 7 C6.66 7 7.32 7 8 7 C8.66 8.32 9.32 9.64 10 11 C8.25 10.875 8.25 10.875 6 10 C3.61358111 6.84150442 1.65814943 3.59265709 0 0 Z " fill="#8596D0" transform="translate(332,297)"/>
<path d="M0 0 C4.66132863 3.57729872 7.73911534 7.10867301 11 12 C7.48144841 10.59257936 6.61387166 9.33533477 5 6 C4.01 5.67 3.02 5.34 2 5 C0.8125 2.4375 0.8125 2.4375 0 0 Z " fill="#0E29A2" transform="translate(326,292)"/>
<path d="M0 0 C0.99 0.33 1.98 0.66 3 1 C2.19152271 2.16945792 1.37810888 3.33550461 0.5625 4.5 C0.11003906 5.1496875 -0.34242188 5.799375 -0.80859375 6.46875 C-1.20175781 6.9740625 -1.59492188 7.479375 -2 8 C-2.33 8 -2.66 8 -3 8 C-3.1875 5.125 -3.1875 5.125 -3 2 C-2.01 1.34 -1.02 0.68 0 0 Z " fill="#5A6DCA" transform="translate(324,199)"/>
<path d="M0 0 C0.66 0 1.32 0 2 0 C2.99 2.31 3.98 4.62 5 7 C3.35 6.67 1.7 6.34 0 6 C-1 3 -1 3 0 0 Z " fill="#0E39CB" transform="translate(144,182)"/>
<path d="M0 0 C-1.20381448 2.49361571 -2.45428722 4.68143083 -4 7 C-4.66 7 -5.32 7 -6 7 C-6 5.02 -6 3.04 -6 1 C-3 0 -3 0 0 0 Z " fill="#5E6ECD" transform="translate(359,163)"/>
<path d="M0 0 C2.50298434 2.93828597 3.46930939 5.17902761 4 9 C2.35 8.67 0.7 8.34 -1 8 C-0.67 5.36 -0.34 2.72 0 0 Z M-3 8 C-1 9 -1 9 -1 9 Z " fill="#0327D3" transform="translate(300,262)"/>
<path d="M0 0 C-0.33 0.99 -0.66 1.98 -1 3 C-4.0625 4.1875 -4.0625 4.1875 -7 5 C-6.67 3.35 -6.34 1.7 -6 0 C-3 -1 -3 -1 0 0 Z " fill="#0418C4" transform="translate(199,185)"/>
<path d="M0 0 C0.99 0.33 1.98 0.66 3 1 C0 4 -3 7 -6 10 C-6.66 9.67 -7.32 9.34 -8 9 C-7.50628906 8.51789063 -7.01257813 8.03578125 -6.50390625 7.5390625 C-5.86324219 6.90742188 -5.22257812 6.27578125 -4.5625 5.625 C-3.92441406 4.99851563 -3.28632813 4.37203125 -2.62890625 3.7265625 C-0.92117824 2.08276939 -0.92117824 2.08276939 0 0 Z " fill="#0C29AF" transform="translate(303,149)"/>
<path d="M0 0 C6.625 -0.125 6.625 -0.125 10 1 C9.34 2.65 8.68 4.3 8 6 C7.34 6 6.68 6 6 6 C5.67 4.68 5.34 3.36 5 2 C3.35 1.67 1.7 1.34 0 1 C0 0.67 0 0.34 0 0 Z " fill="#8E95C2" transform="translate(369,138)"/>
<path d="M0 0 C0.66 0.33 1.32 0.66 2 1 C2 1.66 2 2.32 2 3 C2.66 3 3.32 3 4 3 C4 3.99 4 4.98 4 6 C4.66 6.33 5.32 6.66 6 7 C3.625 6.75 3.625 6.75 1 6 C-0.375 4.0625 -0.375 4.0625 -1 2 C-0.67 1.34 -0.34 0.68 0 0 Z " fill="#4353B9" transform="translate(182,361)"/>
<path d="M0 0 C1.98 0.99 1.98 0.99 4 2 C4 3.32 4 4.64 4 6 C4.66 6.66 5.32 7.32 6 8 C6 8.66 6 9.32 6 10 C5.34 10 4.68 10 4 10 C0 3.375 0 3.375 0 0 Z " fill="#3650C1" transform="translate(236,261)"/>
<path d="M0 0 C1.32 0 2.64 0 4 0 C3.34 2.31 2.68 4.62 2 7 C1.34 7 0.68 7 0 7 C-0.38133299 5.0085944 -0.71325582 3.00720923 -1 1 C-0.67 0.67 -0.34 0.34 0 0 Z " fill="#082EC5" transform="translate(285,242)"/>
<path d="M0 0 C0.33 0.99 0.66 1.98 1 3 C-0.38576653 5.77153305 -2.34131141 6.48074938 -5 8 C-5.99 8.66 -6.98 9.32 -8 10 C-6.34908222 5.70761377 -3.26245434 3.1206085 0 0 Z " fill="#889CD5" transform="translate(273,180)"/>
<path d="M0 0 C0.99 0 1.98 0 3 0 C1.4169423 4.2742558 -1.50568404 6.26531794 -5 9 C-4.33333333 7.66666667 -3.66666667 6.33333333 -3 5 C-2.4740625 3.9171875 -2.4740625 3.9171875 -1.9375 2.8125 C-1 1 -1 1 0 0 Z " fill="#7E87BF" transform="translate(245,139)"/>
<path d="M0 0 C3.80666984 1.44390925 5.26602582 3.34952803 7 7 C6.67 7.66 6.34 8.32 6 9 C5.34 7.68 4.68 6.36 4 5 C3.34 5 2.68 5 2 5 C2 4.34 2 3.68 2 3 C1.34 3 0.68 3 0 3 C0 2.01 0 1.02 0 0 Z " fill="#7888CD" transform="translate(231,258)"/>
<path d="M0 0 C0.99 0 1.98 0 3 0 C2.60196439 2.88575819 2.20990931 3.82189513 -0.0625 5.75 C-0.701875 6.1625 -1.34125 6.575 -2 7 C-2 5.35 -2 3.7 -2 2 C-1.34 2 -0.68 2 0 2 C0 1.34 0 0.68 0 0 Z " fill="#3344B4" transform="translate(193,189)"/>
<path d="M0 0 C0.66 0 1.32 0 2 0 C3.09658936 3.28976808 2.79953138 4.71303767 2 8 C0.68 7.34 -0.64 6.68 -2 6 C-1.34 4.02 -0.68 2.04 0 0 Z " fill="#031ECF" transform="translate(316,350)"/>
<path d="M0 0 C1.5 1.25 1.5 1.25 3 3 C3 4.32 3 5.64 3 7 C3.99 7 4.98 7 6 7 C5.67 7.66 5.34 8.32 5 9 C4.01 9 3.02 9 2 9 C0.50178941 5.62902617 0 3.79557881 0 0 Z " fill="#0720BD" transform="translate(355,325)"/>
<path d="M0 0 C0.66 0.33 1.32 0.66 2 1 C1.375 3.375 1.375 3.375 0 6 C-3.125 7.3125 -3.125 7.3125 -6 8 C-4.02 5.36 -2.04 2.72 0 0 Z " fill="#7187D2" transform="translate(263,190)"/>
<path d="M0 0 C2.875 0.1875 2.875 0.1875 6 1 C7.375 3.5625 7.375 3.5625 8 6 C7.34 6 6.68 6 6 6 C6 5.34 6 4.68 6 4 C5.34 4 4.68 4 4 4 C4 3.34 4 2.68 4 2 C2.68 2.33 1.36 2.66 0 3 C0 2.01 0 1.02 0 0 Z " fill="#0546F0" transform="translate(130,174)"/>
<path d="M0 0 C0.66 0 1.32 0 2 0 C2.33 1.32 2.66 2.64 3 4 C1.35 5.32 -0.3 6.64 -2 8 C-2 6.35 -2 4.7 -2 3 C-1.01 3 -0.02 3 1 3 C0.67 2.01 0.34 1.02 0 0 Z " fill="#5566C9" transform="translate(361,155)"/>
<path d="M0 0 C2.375 0.625 2.375 0.625 5 2 C6.3125 5.125 6.3125 5.125 7 8 C4.35247996 5.42215154 2.05567935 3.08351902 0 0 Z " fill="#7987CA" transform="translate(290,328)"/>
<path d="M0 0 C2 3.875 2 3.875 2 5 C-0.375 5.1875 -0.375 5.1875 -3 5 C-3.66 4.01 -4.32 3.02 -5 2 C-4.01 1.67 -3.02 1.34 -2 1 C-1.34 0.67 -0.68 0.34 0 0 Z " fill="#2D45D0" transform="translate(247,270)"/>
<path d="M0 0 C0.99 0 1.98 0 3 0 C3 0.66 3 1.32 3 2 C3.66 2 4.32 2 5 2 C5 2.66 5 3.32 5 4 C5.66 4 6.32 4 7 4 C7 4.66 7 5.32 7 6 C5.0625 5.6875 5.0625 5.6875 3 5 C2.67 4.01 2.34 3.02 2 2 C1.34 2 0.68 2 0 2 C0 1.34 0 0.68 0 0 Z " fill="#6C7CC5" transform="translate(221,264)"/>
<path d="M0 0 C0.99 0.33 1.98 0.66 3 1 C2.6875 2.875 2.6875 2.875 2 5 C1.01 5.66 0.02 6.32 -1 7 C-0.67 4.69 -0.34 2.38 0 0 Z " fill="#444EAE" transform="translate(117,264)"/>
<path d="M0 0 C0.66 0.33 1.32 0.66 2 1 C1.67 2.65 1.34 4.3 1 6 C0.01 6 -0.98 6 -2 6 C-2.33 4.35 -2.66 2.7 -3 1 C-2.01 0.67 -1.02 0.34 0 0 Z " fill="#0415C0" transform="translate(147,233)"/>
<path d="M0 0 C0 3 0 3 -2.5 5.6875 C-3.325 6.450625 -4.15 7.21375 -5 8 C-5.33 7.01 -5.66 6.02 -6 5 C-4.21653709 1.96811304 -3.40424844 1.13474948 0 0 Z " fill="#7184D5" transform="translate(305,224)"/>
<path d="M0 0 C0 0.66 0 1.32 0 2 C-0.66 2 -1.32 2 -2 2 C-2.66 3.65 -3.32 5.3 -4 7 C-4.66 6.67 -5.32 6.34 -6 6 C-5.625 3.5625 -5.625 3.5625 -5 1 C-3 0 -3 0 0 0 Z " fill="#6B81CF" transform="translate(312,217)"/>
<path d="M0 0 C0.66 0 1.32 0 2 0 C1.60196439 2.88575819 1.20990931 3.82189513 -1.0625 5.75 C-1.701875 6.1625 -2.34125 6.575 -3 7 C-2.25 2.25 -2.25 2.25 0 0 Z " fill="#475FC1" transform="translate(315,210)"/>
<path d="M0 0 C2.97 0.495 2.97 0.495 6 1 C6.33 2.32 6.66 3.64 7 5 C5.35 4.67 3.7 4.34 2 4 C2 3.34 2 2.68 2 2 C1.34 2 0.68 2 0 2 C0 1.34 0 0.68 0 0 Z " fill="#4150BF" transform="translate(164,189)"/>
<path d="M0 0 C0.99 0.495 0.99 0.495 2 1 C2 1.66 2 2.32 2 3 C2.66 3 3.32 3 4 3 C4.66 4.32 5.32 5.64 6 7 C3.13275314 6.42655063 2.1385485 6.1385485 0 4 C0 2.68 0 1.36 0 0 Z " fill="#6379C1" transform="translate(379,351)"/>
<path d="M0 0 C0 1.32 0 2.64 0 4 C-1.65 4 -3.3 4 -5 4 C-5 3.01 -5 2.02 -5 1 C-3 0 -3 0 0 0 Z " fill="#0519C0" transform="translate(191,192)"/>
<path d="M0 0 C2.8125 -0.25 2.8125 -0.25 6 0 C7.875 2 7.875 2 9 4 C7.68 4 6.36 4 5 4 C5 3.34 5 2.68 5 2 C3.35 1.67 1.7 1.34 0 1 C0 0.67 0 0.34 0 0 Z " fill="#3E82DC" transform="translate(118,158)"/>
<path d="M0 0 C0.99 0 1.98 0 3 0 C1.63016497 3.16115776 1.0109362 3.9927092 -2 6 C-2.33 4.68 -2.66 3.36 -3 2 C-2.01 2 -1.02 2 0 2 C0 1.34 0 0.68 0 0 Z " fill="#596CC1" transform="translate(372,144)"/>
<path d="M0 0 C0.99 0.33 1.98 0.66 3 1 C3.33 2.98 3.66 4.96 4 7 C2.35 5.35 0.7 3.7 -1 2 C-0.67 1.34 -0.34 0.68 0 0 Z " fill="#6678C9" transform="translate(301,339)"/>
<path d="M0 0 C1.98 0.99 1.98 0.99 4 2 C4 2.66 4 3.32 4 4 C4.66 4 5.32 4 6 4 C6.33 5.32 6.66 6.64 7 8 C3.70851757 6.86500606 3.0040131 6.00716624 1.25 2.875 C0.8375 1.92625 0.425 0.9775 0 0 Z " fill="#92A4D9" transform="translate(228,270)"/>
<path d="M0 0 C2.375 0.6875 2.375 0.6875 5 2 C6.3125 4.625 6.3125 4.625 7 7 C5.1875 6.875 5.1875 6.875 3 6 C1.25 2.9375 1.25 2.9375 0 0 Z " fill="#1128B8" transform="translate(239,266)"/>
<path d="M0 0 C0.66 0.33 1.32 0.66 2 1 C0.35 2.65 -1.3 4.3 -3 6 C-3.66 5.67 -4.32 5.34 -5 5 C-4.1875 3.0625 -4.1875 3.0625 -3 1 C-2.01 0.67 -1.02 0.34 0 0 Z " fill="#314AB1" transform="translate(197,261)"/>
</svg>
